<svg width="626" height="569" viewBox="0 0 626 569" fill="none" xmlns="http://www.w3.org/2000/svg">
<path d="M588.71 297.963C601.817 294.899 609.234 292.847 622.659 288.207M588.71 297.963L590.239 299.914L611.311 387.715H603.116M588.71 297.963L571.9 299.519M622.659 288.207H625V280.403H622.659M622.659 288.207V280.403M622.659 280.403C610.27 276.087 602.978 273.928 589.069 270.729M203.931 251.136C210.651 249.625 214.094 247.601 218.759 238.648M203.931 251.136H205.492M203.931 251.136H201.199M218.759 238.648L226.173 242.551L246.693 202.747M218.759 238.648L236.448 204.308M365.088 2.95114H372.892V1H354.942M365.088 2.95114L361.068 16.2189M365.088 2.95114H354.942V1M314.36 251.136L313.677 206.259M314.36 251.136H315.921M314.36 251.136H311.239M203.931 316.694C212.094 319.114 215.108 322.081 218.759 329.961M203.931 316.694H201.199M203.931 316.694H205.882M218.759 329.961L226.173 326.059L246.464 365.417M218.759 329.961L236.445 364.301M365.088 565.268H372.892V568H354.942M365.088 565.268H354.942V568M365.088 565.268L361.313 552.781M313.19 393.568H304.995M313.19 393.568L313.398 379.911M313.19 393.568L320.739 418.543M314.36 316.694L313.671 361.96M314.36 316.694H311.239M314.36 316.694H315.921M297.972 316.694V361.57M297.972 316.694H294.07M297.972 316.694H298.752M297.972 361.57H295.24V391.227H304.995M297.972 361.57H304.995M304.995 391.227V361.57M304.995 391.227V393.568M304.995 361.57L306.166 316.694M306.166 316.694H302.459M306.166 316.694H307.337M304.995 393.568V395.91M313.398 379.911H316.702C319.823 379.911 319.823 377.569 316.702 377.569H313.434M313.398 379.911L313.434 377.569M313.434 377.569L313.596 366.88M313.596 366.88H317.872C329.579 366.88 328.798 361.96 317.872 361.96H313.671M313.596 366.88L313.671 361.96M334.924 555.513L338.944 563.317C341.546 566.17 343.354 567.253 347.528 568H354.942M334.924 555.513L342.456 551.61L321.935 511.807M334.924 555.513L314.625 516.1M321.935 511.807L314.625 516.1M321.935 511.807L301.415 472.004M314.625 516.1L294.07 476.188M294.07 476.188L301.415 472.004M294.07 476.188L273.626 436.493M301.415 472.004L281.095 432.591M281.095 432.591L273.626 436.493M281.095 432.591L262.558 396.635M273.626 436.493L253.097 396.635M253.097 396.635H262.558M253.097 396.635L249.308 389.276M262.558 396.635L246.464 365.417M239.058 369.374L246.464 365.417M239.058 369.374L236.445 364.301M239.058 369.374L242.374 375.813M304.995 395.91L295.24 399.422L303.759 424.787M304.995 395.91L313.744 421.665M339.724 498.149L329.579 501.661L320.994 476.102M339.724 498.149L331.042 472.589M339.724 498.149L340.505 501.271H345.744M313.744 421.665L303.759 424.787M313.744 421.665L322.36 447.03M303.759 424.787L312.409 450.542M312.409 450.542L322.36 447.03M312.409 450.542L320.994 476.102M322.36 447.03L331.042 472.589M320.994 476.102L331.042 472.589M345.744 501.271L340.082 482.54M345.744 501.271L346.334 503.222M340.082 482.54H345.187C354.552 482.54 355.333 477.858 345.187 477.858H338.667M340.082 482.54L338.667 477.858M338.667 477.858L322.39 424.006M320.739 418.543H326.847C336.603 418.543 337.773 424.006 326.847 424.006H322.39M320.739 418.543L322.39 424.006M589.069 270.729C588.95 270.702 588.83 270.674 588.71 270.647L571.9 269.09M589.069 270.729L590.239 268.306L610.53 180.895H603.507M528.586 262.316C534.164 263.629 540.102 265.096 546.568 266.745L571.9 269.09M528.586 262.316C534.845 263.15 537.441 262.595 539.512 258.55L583.216 191.821C587.058 185.426 589.1 182.161 591.41 180.895H603.507M528.586 262.316C517.907 259.802 508.546 257.854 499.32 256.277M603.507 180.895L571.9 269.09M528.586 306.244C534.147 304.946 540.095 303.493 546.568 301.865L571.9 299.519M528.586 306.244C535.303 305.589 537.563 306.423 539.512 309.67L588.288 384.203C589.896 387.11 591.661 387.835 593.751 387.715H603.116M528.586 306.244C517.684 308.79 508.272 310.742 499.32 312.25M571.9 299.519L603.116 387.715M335.042 12.9134L338.163 6.85341C340.721 3.38197 342.461 2.12815 346.358 1H354.942M335.042 12.9134L342.456 16.9993L322.136 56.4122M335.042 12.9134L314.644 52.51M322.136 56.4122L314.644 52.51M322.136 56.4122L301.484 96.4721M314.644 52.51L294.14 92.3131M301.484 96.4721L294.14 92.3131M301.484 96.4721L281.193 135.83M294.14 92.3131L273.838 131.726M281.193 135.83L273.838 131.726M281.193 135.83L262.788 171.529M273.838 131.726L253.334 171.529M262.788 171.529H253.334M262.788 171.529L246.693 202.747M253.334 171.529L249.515 178.944M246.693 202.747L239.263 198.845M239.263 198.845L236.448 204.308M239.263 198.845L242.278 192.992M298.362 251.136L297.581 206.65M298.362 251.136H302.264M298.362 251.136L297.191 253.867H294.85L293.679 251.136M298.362 251.136H293.679M297.581 206.65H304.995M297.581 206.65H295.24V177.383H304.995M304.995 206.65L305.776 251.136M304.995 206.65V177.383M305.776 251.136H306.556M305.776 251.136H302.264M304.995 177.383V175.041M304.995 175.041H313.202M304.995 175.041V172.7M313.202 175.041L313.19 174.261L320.604 149.788M313.202 175.041L313.404 188.309M304.995 172.7L295.24 168.798L303.792 143.433M304.995 172.7L313.711 146.945M339.724 70.0702L329.579 66.9484L320.994 92.4107M339.724 70.0702L331.075 95.6301M339.724 70.0702L340.505 66.9484H345.7M313.711 146.945L303.792 143.433M313.711 146.945L322.426 121.19M303.792 143.433L312.409 117.873M322.426 121.19L312.409 117.873M322.426 121.19L331.075 95.6301M312.409 117.873L320.994 92.4107M331.075 95.6301L320.994 92.4107M345.7 66.9484L346.409 64.607M345.7 66.9484L340.026 85.6793M346.409 64.607H334.261L352.211 16.2189H361.068M346.409 64.607L361.068 16.2189M313.677 206.259H318.653C328.798 206.259 328.798 201.577 318.653 201.577H313.606M313.677 206.259L313.606 201.577M313.606 201.577L313.439 190.65M313.439 190.65H315.921C321.384 190.65 321.384 188.309 315.921 188.309H313.404M313.439 190.65L313.404 188.309M320.604 149.788H326.457C338.163 149.788 338.163 144.994 326.457 144.994H322.056M320.604 149.788L322.056 144.994M322.056 144.994L338.607 90.362M338.607 90.362H345.187C355.333 90.362 355.723 85.6793 345.187 85.6793H340.026M338.607 90.362L340.026 85.6793M236.448 204.308C228.392 205.69 223.2 206.18 213.296 206.65C203.98 206.629 198.325 206.34 193.395 204.917M249.515 178.944C247.142 179.347 246.775 178.574 246.693 176.602C233.052 174.225 223.572 173.677 206.662 172.7C200.637 173.101 196.806 173.516 193.395 174.347M249.515 178.944L246.298 185.187M193.395 204.917C191.791 204.454 190.264 203.871 188.713 203.138V175.822C190.302 175.212 191.803 174.734 193.395 174.347M193.395 204.917V174.347M242.278 192.992L232.026 193.772H214.467C194.566 193.772 193.785 185.968 214.467 185.968H232.026L238.66 186.748L246.298 185.187M242.278 192.992L246.298 185.187M236.445 364.301C228.8 363.229 222.405 362.631 207.443 361.57C200.848 361.804 196.674 362.188 193.395 363.202M245.69 382.252H244.123M245.69 382.252L242.374 375.813M245.69 382.252L249.308 389.276M244.123 382.252L230.855 382.642H214.467C193.395 382.252 194.566 374.838 214.467 374.838H232.026L242.374 375.813M244.123 382.252V389.276M193.395 393.941C196.733 394.965 200.685 395.408 207.443 395.52C224.434 394.972 231.613 394.251 244.123 392.008V389.276M193.395 393.941C191.773 393.443 190.296 392.808 188.713 392.008V365.417C190.173 364.454 191.658 363.74 193.395 363.202M193.395 393.941V363.202M244.123 389.276H249.308M76.332 251.136H84.9486H91.9404M76.332 251.136H74.8031C60.4792 251.989 51.2029 254.234 32.642 260.891C-9.13376 278.713 -9.95891 288.884 32.642 307.328C50.8687 314.46 60.0894 316.312 74.8031 316.694H76.332M76.332 251.136V263.233L91.9404 260.891V251.136M91.9404 251.136H100.135M76.332 316.694V304.597L91.9404 307.328V316.694M76.332 316.694H91.9404M91.9404 316.694H99.7446M73.6005 304.597L101.696 306.158M73.9907 264.013L101.305 261.672M233.977 316.694V311.621H241.391V316.694M233.977 316.694H235.538C235.538 313.572 239.44 313.572 239.44 316.694H241.391M233.977 316.694H227.734M241.391 316.694H247.244M247.244 316.694V311.621H255.439V316.694M247.244 316.694H248.805C248.805 313.572 253.488 313.962 253.488 316.694H255.439M255.439 316.694H258.17M233.587 251.136V256.989H241.781V251.136M233.587 251.136H235.538M233.587 251.136H227.734M241.781 251.136H239.44M241.781 251.136H247.244M235.538 251.136V252.306C235.538 254.648 239.44 254.648 239.44 252.306V251.136M235.538 251.136H239.44M247.244 251.136V256.989H255.829V251.136M247.244 251.136H249.586M255.829 251.136H253.488M255.829 251.136H258.56M249.586 251.136V252.306C249.586 254.648 253.488 254.648 253.488 252.306V251.136M249.586 251.136H253.488M484.102 253.989V261.672L499.32 263.623V256.277M484.102 253.989C489.264 254.662 494.272 255.414 499.32 256.277M484.102 253.989C475.685 252.893 466.861 252.007 456.787 251.196M503.222 264.013H481.371M484.102 314.446V307.328L499.32 304.597V312.25M484.102 314.446C489.153 313.842 494.16 313.12 499.32 312.25M484.102 314.446C475.57 315.466 466.912 316.148 457.178 316.63M503.222 303.816H481.371M99.7446 316.694V315.523H100.525V314.743H103.647V315.523H104.427V316.694M99.7446 316.694H104.427M104.427 316.694H108.329M108.329 316.694L109.11 314.743H112.231L113.012 316.694M108.329 316.694H113.012M113.012 316.694H117.694M117.694 316.694L118.475 314.743H121.206L121.987 316.694M117.694 316.694H121.987M121.987 316.694H126.279M126.279 316.694L127.059 314.743H130.181L130.961 316.694M126.279 316.694H130.961M130.961 316.694H134.864M134.864 316.694L135.644 314.743H138.766L139.546 316.694M134.864 316.694H139.546M139.546 316.694H143.448M143.448 316.694L144.229 314.743H148.131L148.911 316.694M143.448 316.694H148.911M148.911 316.694H152.813M152.813 316.694L153.594 314.743H156.715L157.496 316.694M152.813 316.694H157.496M157.496 316.694H161.398M161.398 316.694L162.178 314.743H165.3L166.08 316.694M161.398 316.694H166.08M166.08 316.694H169.983M169.983 316.694L170.763 314.743H174.665L175.446 316.694M169.983 316.694H175.446M175.446 316.694H179.348M179.348 316.694L180.128 314.743H183.25L184.03 316.694M179.348 316.694H184.03M184.03 316.694H187.932M187.932 316.694L188.713 314.743H191.834L192.615 316.694M187.932 316.694H192.615M192.615 316.694H196.517M196.517 316.694L197.297 314.743H200.419L201.199 316.694M196.517 316.694H201.199M205.882 316.694L206.662 314.743H209.784L210.564 316.694M205.882 316.694H210.564M210.564 316.694H214.467M214.467 316.694L215.247 314.743H218.369L219.149 316.694M214.467 316.694H219.149M219.149 316.694H223.051M223.051 316.694L223.832 314.743H226.953L227.734 316.694M223.051 316.694H227.734M258.17 316.694L258.951 314.743H262.853L263.633 316.694M258.17 316.694H263.633M263.633 316.694H267.535M267.535 316.694L268.316 314.743H271.437L272.218 316.694M267.535 316.694H272.218M272.218 316.694H276.12M276.12 316.694L276.9 314.743H280.022L280.802 316.694M276.12 316.694H280.802M280.802 316.694H284.704M284.704 316.694L285.485 314.743H289.387L290.167 316.694M284.704 316.694H290.167M290.167 316.694H294.07M294.07 316.694L294.85 314.743H297.972L298.752 316.694M298.752 316.694H302.459M302.459 316.694L303.435 314.743H306.556L307.337 316.694M307.337 316.694H311.239M311.239 316.694L312.019 314.743H315.141L315.921 316.694M315.921 316.694H320.604M320.604 316.694L321.384 314.743H323.726L324.896 316.694M320.604 316.694H324.896M324.896 316.694H329.189M329.189 316.694L329.969 314.743H333.091L333.871 316.694M329.189 316.694H333.871M333.871 316.694H337.773M337.773 316.694L338.554 314.743H341.675L342.456 316.694M337.773 316.694H342.456M342.456 316.694H347.138M347.138 316.694L347.919 314.743H351.04L351.821 316.694M347.138 316.694H351.821M351.821 316.694H355.723M355.723 316.694L356.503 314.743H359.625L360.405 316.694M355.723 316.694H360.405M360.405 316.694H364.307M364.307 316.694L365.088 314.743H368.21L368.99 316.694M364.307 316.694H368.99M368.99 316.694H372.892M372.892 316.694L373.673 314.743H376.794L377.575 316.694M372.892 316.694H377.575M377.575 316.694H382.257M382.257 316.694L383.038 314.743H386.159L386.94 316.694M382.257 316.694H386.94M386.94 316.694H390.842M390.842 316.694L391.622 314.743H394.744L395.524 316.694M390.842 316.694H395.524M395.524 316.694H399.426M399.426 316.694L400.207 314.743H403.329L404.109 316.694M399.426 316.694H404.109M404.109 316.694H408.791M408.791 316.694L409.572 314.743H412.694L413.474 316.694M408.791 316.694H413.474M413.474 316.694H417.376M417.376 316.694L418.157 314.743H421.278L422.059 316.694M417.376 316.694H422.059M422.059 316.694H426.741M426.741 316.694L427.522 314.743H430.643L431.424 316.694M426.741 316.694H431.424M431.424 316.694H435.326M435.326 316.694L436.106 314.743H439.228L440.008 316.694M435.326 316.694H440.008M440.008 316.694H443.91M443.91 316.694L444.691 314.743H447.813L448.593 316.694M443.91 316.694H448.593M448.593 316.694H452.232M452.232 316.694H455.87C456.308 316.673 456.744 316.652 457.178 316.63M452.232 316.694L453.275 314.743H456.397L457.178 316.63M456.787 251.196C456.539 251.176 456.289 251.156 456.039 251.136H452.495M456.787 251.196L456.007 253.867H454.056L452.495 251.136M452.495 251.136H448.593M448.593 251.136L447.032 253.867H444.691L443.52 251.136M448.593 251.136H443.52M443.52 251.136H439.228M439.228 251.136L438.447 253.867H436.106L434.936 251.136M439.228 251.136H434.936M434.936 251.136H430.643M430.643 251.136L429.863 253.867H426.741L425.961 251.136M430.643 251.136H425.961M425.961 251.136H421.668M421.668 251.136L420.498 253.867H418.157L416.986 251.136M421.668 251.136H416.986M416.986 251.136H412.694M412.694 251.136L411.913 253.867H408.791L408.011 251.136M412.694 251.136H408.011M408.011 251.136H404.109M404.109 251.136L403.329 253.867H400.207L399.036 251.136M404.109 251.136H399.036M399.036 251.136H394.744M394.744 251.136L393.963 253.867H391.622L390.842 251.136M394.744 251.136H390.842M390.842 251.136H386.159M386.159 251.136L385.379 253.867H383.038L382.257 251.136M386.159 251.136H382.257M382.257 251.136H377.575M377.575 251.136L376.794 253.867H374.453L372.892 251.136M377.575 251.136H372.892M372.892 251.136H368.21M368.21 251.136L367.429 253.867H365.088L363.917 251.136M368.21 251.136H363.917M363.917 251.136H359.625M359.625 251.136L358.845 253.867H356.503L355.333 251.136M359.625 251.136H355.333M355.333 251.136H351.04M351.04 251.136L350.26 253.867H347.919L347.138 251.136M351.04 251.136H347.138M347.138 251.136H342.456M342.456 251.136L341.675 253.867H338.554L337.383 251.136M342.456 251.136H337.383M337.383 251.136H333.481M333.481 251.136L332.31 253.867H329.969L328.798 251.136M333.481 251.136H328.798M328.798 251.136H324.506M324.506 251.136L323.726 253.867H321.384L320.214 251.136M324.506 251.136H320.214M320.214 251.136H315.921M315.921 251.136L315.141 253.867H312.019L311.239 251.136M311.239 251.136H306.556M306.556 251.136L305.776 253.867H303.435L302.264 251.136M293.679 251.136H289.387M289.387 251.136L288.607 253.867H285.485L284.314 251.136M289.387 251.136H284.314M284.314 251.136H280.802M280.802 251.136L280.022 253.867H276.9L275.73 251.136M280.802 251.136H275.73M275.73 251.136H271.437M271.437 251.136L270.657 253.867H268.316L267.535 251.136M271.437 251.136H267.535M267.535 251.136H263.243M263.243 251.136L262.072 253.867H259.731L258.56 251.136M263.243 251.136H258.56M227.734 251.136L226.953 253.867H223.832L222.661 251.136M227.734 251.136H222.661M222.661 251.136H219.149M219.149 251.136L218.369 253.867H215.247L214.076 251.136M219.149 251.136H214.076M214.076 251.136H209.784M209.784 251.136L209.004 253.867H206.662L205.492 251.136M209.784 251.136H205.492M201.199 251.136L200.419 253.867H197.297L196.127 251.136M201.199 251.136H196.127M196.127 251.136H192.615M192.615 251.136L191.834 253.867H188.713L187.932 251.136M192.615 251.136H187.932M187.932 251.136H184.03M184.03 251.136L183.25 253.867H179.348L178.567 251.136M184.03 251.136H178.567M178.567 251.136H174.665M174.665 251.136L173.885 253.867H170.763L169.983 251.136M174.665 251.136H169.983M169.983 251.136H166.08M166.08 251.136L165.3 253.867H162.178L161.008 251.136M166.08 251.136H161.008M161.008 251.136H157.496M157.496 251.136L156.325 253.867H152.813L152.033 251.136M157.496 251.136H152.033M152.033 251.136H148.131M148.131 251.136L147.35 253.867H145.009L144.229 251.136M148.131 251.136H144.229M144.229 251.136H139.546M139.546 251.136L138.766 253.867H135.644L134.864 251.136M139.546 251.136H134.864M134.864 251.136H130.571M130.571 251.136L129.401 253.867H126.669L125.889 251.136M130.571 251.136H125.889M125.889 251.136H121.596M121.596 251.136L120.816 253.867H117.694L116.914 251.136M121.596 251.136H116.914M116.914 251.136H113.402M113.402 251.136L112.231 253.867H109.11L107.939 251.136M113.402 251.136H107.939M107.939 251.136H104.037M104.037 251.136V253.867H100.135V251.136M104.037 251.136H100.135M361.313 552.781H352.211L333.481 503.222H346.334M361.313 552.781L346.334 503.222M509.076 288.207C553.082 287.57 586.587 288.431 610.921 285.085V283.524C601.092 281.319 565.303 280.926 509.076 280.012C492.293 279.831 483.524 280.151 472.006 283.524V285.085C482.02 287.816 489.806 288.621 509.076 288.207ZM22.4829 285.085H31.0676L38.4816 295.621L30.2871 298.353L22.4829 285.085ZM22.4829 282.744L30.2871 269.866L38.4816 272.598L31.0676 282.744H22.4829ZM31.848 267.915L47.4564 258.55V265.574L41.213 270.257L31.848 267.915ZM31.848 300.694L40.0424 297.573L47.4564 303.036V310.06L31.848 300.694ZM49.4075 304.206V310.84L57.2117 313.182V308.889C55.1472 306.64 53.1884 305.716 49.4075 304.206ZM49.4075 257.769V264.013C52.1603 263.177 53.8142 262.328 57.2117 259.721V255.428L49.4075 257.769ZM212.906 364.692V360.009C209.579 362.07 206.623 363.089 199.639 364.692H212.906Z" stroke="black"/>
</svg>
