<svg width="191" height="197" viewBox="0 0 191 197" fill="none" xmlns="http://www.w3.org/2000/svg">
<path d="M60.9716 154.641C60.1112 157.75 59.6914 159.546 59.1262 162.903M60.9716 154.641L60.3856 154.739L39.496 149.092L40.4368 147.368M60.9716 154.641L62.5742 150.926M59.1262 162.903L58.8574 163.396L60.4992 164.292L60.768 163.799M59.1262 162.903L60.768 163.799M60.768 163.799C63.0983 161.688 64.3895 160.402 66.6594 157.843M114.999 79.0695C114.545 80.6566 114.576 81.6133 115.924 83.6225M114.999 79.0695L114.82 79.3978M114.999 79.0695L115.313 78.4949M115.924 83.6225L114.252 84.7343L120.269 93.6209M115.924 83.6225L121.117 91.2864M148.706 141.466L147.81 143.108L148.221 143.332L150.281 139.556M148.706 141.466L146.377 139.097M148.706 141.466L149.871 139.332L150.281 139.556M102.321 102.301L111.84 107.309M102.321 102.301L102.142 102.629M102.321 102.301L102.679 101.644M101.208 71.543C99.7618 72.9824 98.7915 73.2759 96.7146 73.1392M101.208 71.543L101.522 70.9684M101.208 71.543L100.984 71.9535M96.7146 73.1392L96.6843 75.1469L86.0752 74.8971M96.7146 73.1392L87.4601 72.9175M30.414 76.9084L29.5179 78.5502L28.9433 78.2366L31.0041 74.4605M30.414 76.9084L31.5788 74.7741L31.0041 74.4605M30.414 76.9084L33.4742 77.548M72.4922 85.7026L73.433 83.9787M72.4922 85.7026L75.3415 87.3144M72.4922 85.7026L66.3717 84.4235M88.5296 94.7746L79.0862 89.4327M88.5296 94.7746L88.888 94.1179M88.5296 94.7746L88.3504 95.103M90.4112 91.3268L80.9708 86.1747M90.4112 91.3268L90.8592 90.5059M90.4112 91.3268L90.3216 91.491M80.9708 86.1747L81.2844 85.6001L75.0456 82.1953L73.9255 84.2475M80.9708 86.1747L80.1644 87.6524M73.9255 84.2475L80.1644 87.6524M73.9255 84.2475L73.433 83.9787M80.1644 87.6524L89.4704 93.0507M89.4704 93.0507L89.896 92.2708M89.4704 93.0507L89.336 93.297M73.433 83.9787L72.9405 83.7099M75.3415 87.3144L74.9621 88.0095C74.6037 88.6662 75.0963 88.935 75.4547 88.2783L75.8299 87.5907M75.3415 87.3144L75.8299 87.5907M75.8299 87.5907L78.0599 88.8521M78.0599 88.8521L77.5689 89.7517C76.2249 92.2144 77.3495 92.6151 78.6039 90.3165L79.0862 89.4327M78.0599 88.8521L79.0862 89.4327M35.9293 71.6828L33.826 71.6324C32.9273 71.8523 32.4918 72.1084 31.8553 72.9008L31.0041 74.4605M35.9293 71.6828L35.8855 73.7152L46.6147 73.9679M35.9293 71.6828L46.551 71.9373M46.6147 73.9679L46.551 71.9373M46.6147 73.9679L57.3439 74.2205M46.551 71.9373L57.3072 72.195M57.3072 72.195L57.3439 74.2205M57.3072 72.195L68.0046 72.4513M57.3439 74.2205L67.968 74.4707M67.968 74.4707L68.0046 72.4513M67.968 74.4707L77.6603 74.699M68.0046 72.4513L78.7465 72.7087M78.7465 72.7087L77.6603 74.699M78.7465 72.7087L80.7296 72.7562M77.6603 74.699L86.0752 74.8971M86.093 72.8847L86.0752 74.8971M86.093 72.8847L87.4601 72.9175M86.093 72.8847L84.3578 72.8432M72.9405 83.7099L73.3217 81.2545L67.0077 80.1346M72.9405 83.7099L66.5181 82.5936M47.4455 79.2782L47.8715 76.7407L54.2341 77.8691M47.4455 79.2782L53.8193 80.3862M47.4455 79.2782L46.6992 79.084L46.0977 80.1863M66.5181 82.5936L67.0077 80.1346M66.5181 82.5936L60.193 81.4941M67.0077 80.1346L60.5966 78.9976M60.5966 78.9976L60.193 81.4941M60.5966 78.9976L54.2341 77.8691M60.193 81.4941L53.8193 80.3862M54.2341 77.8691L53.8193 80.3862M46.0977 80.1863L50.688 81.1456M46.0977 80.1863L45.6195 80.0863M50.688 81.1456L50.1019 82.2195C49.0267 84.1897 49.9222 84.8915 51.087 82.7571L51.8356 81.3855M50.688 81.1456L51.8356 81.3855M51.8356 81.3855L65.0329 84.1437M66.3717 84.4235L65.6704 85.7086C64.5504 87.7608 63.2667 87.3799 64.5211 85.0814L65.0329 84.1437M66.3717 84.4235L65.0329 84.1437M66.6594 157.843C66.6788 157.821 66.6983 157.799 66.7179 157.777L68.9754 154.419M66.6594 157.843L67.0349 158.368L83.0935 172.672L83.8999 171.194M75.3733 146.085C74.4568 147.108 73.4664 148.189 72.3772 149.36L68.9754 154.419M75.3733 146.085C74.4793 147.306 74.298 147.916 74.9112 148.816L83.931 165.671C84.8352 167.214 85.2877 168.018 85.2887 168.649L83.8999 171.194M75.3733 146.085C77.1282 144.127 78.6129 142.381 80.0038 140.622M83.8999 171.194L68.9754 154.419M66.1324 141.042C65.7671 142.361 65.3899 143.779 64.9891 145.327L62.5742 150.926M66.1324 141.042C65.4989 142.53 65.0641 142.91 64.1574 142.947L42.878 144.652C42.0819 144.656 41.7268 144.944 41.512 145.398L40.4368 147.368M66.1324 141.042C66.8485 138.456 67.5185 136.252 68.2289 134.196M62.5742 150.926L40.4368 147.368M150.06 134.001L150.977 135.354C151.413 136.29 151.477 136.8 151.267 137.75L150.281 139.556M150.06 134.001L148.349 135.092L142.391 126.292M150.06 134.001L144.072 125.164M142.391 126.292L144.072 125.164M142.391 126.292L136.335 117.348M144.072 125.164L138.053 116.281M136.335 117.348L138.053 116.281M136.335 117.348L130.385 108.561M138.053 116.281L132.093 107.485M130.385 108.561L132.093 107.485M130.385 108.561L124.988 100.591M132.093 107.485L126.074 98.6019M124.988 100.591L126.074 98.6019M124.988 100.591L120.269 93.6209M126.074 98.6019L124.953 96.9472M120.269 93.6209L121.943 92.5057M121.943 92.5057L121.117 91.2864M121.943 92.5057L122.828 93.812M104.158 98.9354L113.606 103.878M104.158 98.9354L103.71 99.7563M104.158 98.9354L103.717 98.3755L103.986 97.883L104.695 97.9503M104.158 98.9354L104.695 97.9503M113.606 103.878L112.754 105.438M113.606 103.878L113.874 103.386L120.031 106.746L118.911 108.798M112.754 105.438L103.306 100.495M112.754 105.438L118.911 108.798M103.306 100.495L103.217 100.659M103.306 100.495L103.71 99.7563M118.911 108.798L119.404 109.067M119.404 109.067L118.461 110.793M119.404 109.067L119.896 109.336M118.461 110.793L118.627 110.88L122.924 115.25M118.461 110.793L115.647 109.313M119.896 109.336L121.837 107.732L126.191 112.443M119.896 109.336L124.314 114.126M137.499 128.424L139.32 126.648L134.949 121.919M137.499 128.424L133.115 123.67M137.499 128.424L138.066 128.947L137.469 130.04M124.314 114.126L126.191 112.443M124.314 114.126L128.731 118.916M126.191 112.443L130.579 117.19M128.731 118.916L130.579 117.19M128.731 118.916L133.115 123.67M130.579 117.19L134.949 121.919M133.115 123.67L134.949 121.919M137.469 130.04L137.88 130.458M137.469 130.04L134.18 126.696M137.88 130.458L139.275 127.902L147.394 137.234L146.377 139.097M137.88 130.458L146.377 139.097M111.84 107.309L111.268 108.356C110.104 110.49 111.089 111.028 112.253 108.894L112.833 107.832M111.84 107.309L112.833 107.832M112.833 107.832L115.151 109.051M115.151 109.051L114.866 109.574C114.238 110.723 114.731 110.992 115.358 109.842L115.647 109.313M115.151 109.051L115.647 109.313M122.924 115.25L122.252 116.481C120.908 118.944 121.917 119.494 123.261 117.032L123.766 116.106M122.924 115.25L123.766 116.106M123.766 116.106L133.358 125.86M133.358 125.86L132.603 127.244C131.438 129.378 132.378 129.998 133.588 127.782L134.18 126.696M133.358 125.86L134.18 126.696M121.117 91.2864C121.751 89.433 122.244 88.2845 123.282 86.1469C124.356 84.1895 125.066 83.033 125.932 82.1593M124.953 96.9472C125.14 96.4018 125.345 96.4133 125.769 96.6225C127.835 94.0255 129.039 92.0942 131.186 88.649C131.793 87.3353 132.146 86.4818 132.363 85.6689M124.953 96.9472L124.008 95.5538M125.932 82.1593C126.213 81.875 126.511 81.6207 126.844 81.3784L132.59 84.5145C132.536 84.9188 132.464 85.2894 132.363 85.6689M125.932 82.1593L132.363 85.6689M122.828 93.812L123.841 91.5657L125.857 87.8716C128.142 83.685 129.873 84.4168 127.499 88.7676L125.483 92.4617L124.557 93.7676L124.008 95.5538M122.828 93.812L124.008 95.5538M87.4601 72.9175C88.5635 71.4323 89.4235 70.1557 91.3645 67.1298C92.0723 65.7156 92.4709 64.7933 92.6339 63.9871M82.6226 72.8016L82.8025 72.4718M82.6226 72.8016L84.3578 72.8432M82.6226 72.8016L80.7296 72.7562M82.8025 72.4718L84.2436 69.636L86.1252 66.1882C88.6266 61.8001 90.0519 62.8976 87.7671 67.0842L85.751 70.7782L84.3578 72.8432M82.8025 72.4718L81.3249 71.6654M86.1676 60.4581C85.5691 61.0427 85.0221 61.8233 84.2227 63.2321C82.3872 66.8695 81.7145 68.4626 80.7502 71.3518L81.3249 71.6654M86.1676 60.4581C86.4586 60.174 86.7617 59.9362 87.1119 59.695L92.7056 62.7477C92.7405 63.1655 92.7203 63.56 92.6339 63.9871M86.1676 60.4581L92.6339 63.9871M81.3249 71.6654L80.7296 72.7562M129.649 52.2259L128.66 54.0386L127.857 55.5095M129.649 52.2259L129.825 51.9043C131.29 48.7929 131.882 46.5837 132.613 41.9147C133.66 31.0801 131.615 29.7388 122.844 36.5834C119.251 39.5991 117.803 41.3263 116.033 44.3778L115.858 44.6994M129.649 52.2259L127.104 50.8371L125.805 54.3895L127.857 55.5095M127.857 55.5095L126.916 57.2334M115.858 44.6994L118.403 46.0883L116.036 49.0583L114.066 47.9831M115.858 44.6994L114.066 47.9831M114.066 47.9831L113.17 49.6249M118.716 45.5136L115.162 51.2449M127.209 50.255L124.565 56.2701M97.7585 77.864L98.8257 78.4464L97.9745 80.0061L96.9073 79.4237M97.7585 77.864L97.5793 78.1923C98.236 78.5507 97.788 79.3716 97.1313 79.0132L96.9073 79.4237M97.7585 77.864L98.4753 76.5505M96.9073 79.4237L96.2353 80.655M96.2353 80.655L97.3025 81.2375L96.3617 82.9613L95.2945 82.3789M96.2353 80.655L96.0561 80.9834C96.7128 81.3418 96.0931 82.2821 95.5185 81.9685L95.2945 82.3789M95.2945 82.3789L94.9809 82.9536M111.594 85.3084L110.363 84.6364L109.422 86.3602L110.654 87.0323M111.594 85.3084L111.37 85.7188M111.594 85.3084L112.266 84.077M110.654 87.0323L110.922 86.5397M110.654 87.0323L110.026 88.1815M111.37 85.7188L111.124 85.5844C110.632 85.3156 110.184 86.1365 110.676 86.4053L110.922 86.5397M111.37 85.7188L110.922 86.5397M110.026 88.1815L108.795 87.5095L107.81 89.3155L109.041 89.9875M110.026 88.1815L109.758 88.6741M109.041 89.9875L109.31 89.495M109.041 89.9875L108.727 90.5621M109.758 88.6741L109.511 88.5397C109.019 88.2709 108.571 89.0918 109.063 89.3606L109.31 89.495M109.758 88.6741L109.31 89.495M82.2323 137.683L80.6161 136.801L78.4585 139.778L80.0038 140.622M82.2323 137.683C81.4982 138.691 80.7651 139.659 80.0038 140.622M82.2323 137.683C83.4293 136.038 84.6287 134.283 85.956 132.257M77.9284 140.554L80.4372 135.957M69.5143 130.742L71.0116 131.559L69.839 135.074L68.2289 134.196M69.5143 130.742C69.0614 131.874 68.6384 133.01 68.2289 134.196M69.5143 130.742C70.2793 128.83 71.1299 126.93 72.1459 124.827M69.5552 135.985L72.064 131.388M113.17 49.6249L113.416 49.7593L113.327 49.9235L113.491 50.0131L113.132 50.6698L112.968 50.5802L112.879 50.7444L112.632 50.61M113.17 49.6249L112.632 50.61M112.632 50.61L112.184 51.4309M112.184 51.4309L112.505 51.819L112.147 52.4758L111.647 52.4159M112.184 51.4309L111.647 52.4159M111.647 52.4159L111.109 53.401M111.109 53.401L111.43 53.7892L111.116 54.3638L110.616 54.304M111.109 53.401L110.616 54.304M110.616 54.304L110.123 55.207M110.123 55.207L110.444 55.5952L110.086 56.2519L109.586 56.1921M110.123 55.207L109.586 56.1921M109.586 56.1921L109.138 57.013M109.138 57.013L109.459 57.4012L109.1 58.0579L108.6 57.9981M109.138 57.013L108.6 57.9981M108.6 57.9981L108.152 58.819M108.152 58.819L108.473 59.2072L108.025 60.0281L107.525 59.9683M108.152 58.819L107.525 59.9683M107.525 59.9683L107.077 60.7892M107.077 60.7892L107.398 61.1773L107.039 61.8341L106.539 61.7742M107.077 60.7892L106.539 61.7742M106.539 61.7742L106.091 62.5952M106.091 62.5952L106.412 62.9833L106.054 63.6401L105.554 63.5802M106.091 62.5952L105.554 63.5802M105.554 63.5802L105.106 64.4011M105.106 64.4011L105.427 64.7893L104.979 65.6102L104.479 65.5504M105.106 64.4011L104.479 65.5504M104.479 65.5504L104.031 66.3713M104.031 66.3713L104.351 66.7595L103.993 67.4162L103.493 67.3564M104.031 66.3713L103.493 67.3564M103.493 67.3564L103.045 68.1773M103.045 68.1773L103.366 68.5655L103.007 69.2222L102.507 69.1624M103.045 68.1773L102.507 69.1624M102.507 69.1624L102.059 69.9833M102.059 69.9833L102.38 70.3715L102.022 71.0282L101.522 70.9684M102.059 69.9833L101.522 70.9684M100.984 71.9535L101.305 72.3416L100.947 72.9984L100.447 72.9385M100.984 71.9535L100.447 72.9385M100.447 72.9385L99.9985 73.7594M99.9985 73.7594L100.319 74.1476L99.961 74.8044L99.4609 74.7445M99.9985 73.7594L99.4609 74.7445M99.4609 74.7445L99.0129 75.5654M99.0129 75.5654L99.3338 75.9536L98.9754 76.6103L98.4753 76.5505M99.0129 75.5654L98.4753 76.5505M94.9809 82.9536L95.3017 83.3418L94.8537 84.1627L94.3537 84.1028M94.9809 82.9536L94.3537 84.1028M94.3537 84.1028L93.9057 84.9237M93.9057 84.9237L94.2265 85.3119L93.8681 85.9687L93.3681 85.9088M93.9057 84.9237L93.3681 85.9088M93.3681 85.9088L92.92 86.7297M92.92 86.7297L93.2409 87.1179L92.8825 87.7746L92.3824 87.7148M92.92 86.7297L92.3824 87.7148M92.3824 87.7148L91.9344 88.5357M91.9344 88.5357L92.2553 88.9239L91.8073 89.7448L91.3072 89.685M91.9344 88.5357L91.3072 89.685M91.3072 89.685L90.8592 90.5059M90.8592 90.5059L91.1801 90.8941L90.8217 91.5508L90.3216 91.491M90.3216 91.491L89.896 92.2708M89.896 92.2708L90.1945 92.7001L89.8361 93.3568L89.336 93.297M89.336 93.297L88.888 94.1179M88.888 94.1179L89.2089 94.5061L88.8504 95.1628L88.3504 95.103M88.3504 95.103L87.8128 96.088M87.8128 96.088L88.1336 96.4762L87.8648 96.9688L87.32 96.991M87.8128 96.088L87.32 96.991M87.32 96.991L86.8272 97.894M86.8272 97.894L87.148 98.2822L86.7896 98.9389L86.2896 98.8791M86.8272 97.894L86.2896 98.8791M86.2896 98.8791L85.8416 99.7M85.8416 99.7L86.1624 100.088L85.804 100.745L85.304 100.685M85.8416 99.7L85.304 100.685M85.304 100.685L84.7664 101.67M84.7664 101.67L85.0872 102.058L84.7288 102.715L84.2288 102.655M84.7664 101.67L84.2288 102.655M84.2288 102.655L83.7807 103.476M83.7807 103.476L84.1016 103.864L83.7432 104.521L83.2431 104.461M83.7807 103.476L83.2431 104.461M83.2431 104.461L82.7951 105.282M82.7951 105.282L83.116 105.67L82.7576 106.327L82.2575 106.267M82.7951 105.282L82.2575 106.267M82.2575 106.267L81.8095 107.088M81.8095 107.088L82.1304 107.476L81.772 108.133L81.2719 108.073M81.8095 107.088L81.2719 108.073M81.2719 108.073L80.7343 109.058M80.7343 109.058L81.0552 109.447L80.6968 110.103L80.1967 110.043M80.7343 109.058L80.1967 110.043M80.1967 110.043L79.7487 110.864M79.7487 110.864L80.0696 111.252L79.7112 111.909L79.2111 111.849M79.7487 110.864L79.2111 111.849M79.2111 111.849L78.7631 112.67M78.7631 112.67L79.0839 113.058L78.7255 113.715L78.2255 113.655M78.7631 112.67L78.2255 113.655M78.2255 113.655L77.6879 114.64M77.6879 114.64L78.0087 115.029L77.6503 115.685L77.1503 115.626M77.6879 114.64L77.1503 115.626M77.1503 115.626L76.7023 116.446M76.7023 116.446L77.0231 116.835L76.6647 117.491L76.1647 117.432M76.7023 116.446L76.1647 117.432M76.1647 117.432L75.6271 118.417M75.6271 118.417L75.9479 118.805L75.5895 119.462L75.0895 119.402M75.6271 118.417L75.0895 119.402M75.0895 119.402L74.6414 120.223M74.6414 120.223L74.9623 120.611L74.6039 121.268L74.1038 121.208M74.6414 120.223L74.1038 121.208M74.1038 121.208L73.6558 122.029M73.6558 122.029L73.9767 122.417L73.6183 123.074L73.1182 123.014M73.6558 122.029L73.1182 123.014M73.1182 123.014L72.7005 123.779M72.7005 123.779L72.2827 124.545C72.2368 124.639 72.1912 124.733 72.1459 124.827M72.7005 123.779L72.9911 124.223L72.6327 124.88L72.1459 124.827M85.956 132.257C85.9888 132.207 86.0216 132.157 86.0546 132.107L86.4614 131.361M85.956 132.257L85.4836 131.786L85.7076 131.376L86.4614 131.361M86.4614 131.361L86.9094 130.54M86.9094 130.54L86.514 129.898L86.7828 129.406L87.4918 129.473M86.9094 130.54L87.4918 129.473M87.4918 129.473L87.9846 128.57M87.9846 128.57L87.4996 128.092L87.7684 127.6L88.4774 127.667M87.9846 128.57L88.4774 127.667M88.4774 127.667L88.9702 126.764M88.9702 126.764L88.4852 126.286L88.8436 125.63L89.5078 125.779M88.9702 126.764L89.5078 125.779M89.5078 125.779L90.0007 124.876M90.0007 124.876L89.5604 124.316L89.8292 123.824L90.5383 123.891M90.0007 124.876L90.5383 123.891M90.5383 123.891L91.0311 122.988M91.0311 122.988L90.546 122.51L90.9044 121.853L91.5687 122.003M91.0311 122.988L91.5687 122.003M91.5687 122.003L92.0167 121.182M92.0167 121.182L91.5316 120.704L91.89 120.047L92.5991 120.115M92.0167 121.182L92.5991 120.115M92.5991 120.115L93.0919 119.212M93.0919 119.212L92.6069 118.734L92.8757 118.241L93.5399 118.391M93.0919 119.212L93.5399 118.391M93.5399 118.391L94.0775 117.406M94.0775 117.406L93.5925 116.928L93.8613 116.435L94.5255 116.585M94.0775 117.406L94.5255 116.585M94.5255 116.585L95.0631 115.6M95.0631 115.6L94.5781 115.122L94.8469 114.629L95.6007 114.615M95.0631 115.6L95.6007 114.615M95.6007 114.615L96.1383 113.63M96.1383 113.63L95.6533 113.152L95.9221 112.659L96.6311 112.727M96.1383 113.63L96.6311 112.727M96.6311 112.727L97.1239 111.824M97.1239 111.824L96.6389 111.346L96.9077 110.853L97.6167 110.921M97.1239 111.824L97.6167 110.921M97.6167 110.921L98.1095 110.018M98.1095 110.018L97.6245 109.54L97.8933 109.047L98.5575 109.197M98.1095 110.018L98.5575 109.197M98.5575 109.197L99.0952 108.212M99.0952 108.212L98.6101 107.734L98.9685 107.077L99.6776 107.144M99.0952 108.212L99.6776 107.144M99.6776 107.144L100.126 106.324M100.126 106.324L99.6853 105.764L99.9541 105.271L100.663 105.338M100.126 106.324L100.663 105.338M100.663 105.338L101.156 104.435M101.156 104.435L100.671 103.958L100.94 103.465L101.649 103.532M101.156 104.435L101.649 103.532M101.649 103.532L102.142 102.629M102.142 102.629L101.657 102.152L102.015 101.495L102.679 101.644M102.679 101.644L103.217 100.659M103.217 100.659L102.732 100.181L103.001 99.6889L103.71 99.7563M104.695 97.9503L105.188 97.0473M105.188 97.0473L104.703 96.5695L105.061 95.9128L105.77 95.9801M105.188 97.0473L105.77 95.9801M105.77 95.9801L106.174 95.2413M106.174 95.2413L105.689 94.7635L106.047 94.1068L106.756 94.1741M106.174 95.2413L106.756 94.1741M106.756 94.1741L107.249 93.2711M107.249 93.2711L106.764 92.7933L107.033 92.3008L107.697 92.4502M107.249 93.2711L107.697 92.4502M107.697 92.4502L108.19 91.5472M108.19 91.5472L107.749 90.9874L108.018 90.4948L108.727 90.5621M108.19 91.5472L108.727 90.5621M112.266 84.077L111.781 83.5992L112.14 82.9425L112.849 83.0098M112.266 84.077L112.849 83.0098M112.849 83.0098L113.252 82.271M113.252 82.271L112.767 81.7932L113.125 81.1365L113.835 81.2038M113.252 82.271L113.835 81.2038M113.835 81.2038L114.327 80.3008M114.327 80.3008L113.842 79.8231L114.111 79.3305L114.82 79.3978M114.327 80.3008L114.82 79.3978M115.313 78.4949L114.828 78.0171L115.186 77.3603L115.895 77.4277M115.313 78.4949L115.895 77.4277M115.895 77.4277L116.299 76.6889M116.299 76.6889L115.814 76.2111L116.172 75.5544L116.836 75.7038M116.299 76.6889L116.836 75.7038M116.836 75.7038L117.284 74.8829M117.284 74.8829L116.799 74.4051L117.247 73.5842L117.911 73.7336M117.284 74.8829L117.911 73.7336M117.911 73.7336L118.359 72.9127M118.359 72.9127L117.874 72.4349L118.233 71.7782L118.897 71.9276M118.359 72.9127L118.897 71.9276M118.897 71.9276L119.345 71.1067M119.345 71.1067L118.86 70.6289L119.218 69.9722L119.927 70.0395M119.345 71.1067L119.927 70.0395M119.927 70.0395L120.331 69.3007M120.331 69.3007L119.89 68.7409L120.294 68.002L120.958 68.1515M120.331 69.3007L120.958 68.1515M120.958 68.1515L121.406 67.3306M121.406 67.3306L120.921 66.8528L121.19 66.3602L121.854 66.5097M121.406 67.3306L121.854 66.5097M121.854 66.5097L122.391 65.5246M122.391 65.5246L121.906 65.0468L122.265 64.3901L122.929 64.5395M122.391 65.5246L122.929 64.5395M122.929 64.5395L123.422 63.6365M123.422 63.6365L122.982 63.0766L123.295 62.502L123.959 62.6514M123.422 63.6365L123.959 62.6514M123.959 62.6514L124.452 61.7484M124.452 61.7484L123.967 61.2706L124.326 60.6139L124.99 60.7633M124.452 61.7484L124.99 60.7633M124.99 60.7633L125.393 60.0245M125.393 60.0245L124.953 59.4646L125.311 58.8079L126.02 58.8752M125.393 60.0245L126.02 58.8752M126.02 58.8752L126.468 58.0543M126.468 58.0543L125.894 57.7407L126.342 56.9198L126.916 57.2334M126.468 58.0543L126.916 57.2334M33.4742 77.548L34.5193 75.6331L47.0952 77.3824L45.6195 80.0863M33.4742 77.548L45.6195 80.0863M72.1668 139.008C67.2483 148.339 63.2206 155.289 61.1306 160.792L61.4589 160.971C63.0514 159.157 67.243 151.673 73.8907 139.949C75.8556 136.439 76.7951 134.558 77.4079 131.747L77.0795 131.568C75.3553 133.361 74.292 134.907 72.1668 139.008ZM128.69 36.9998L127.704 38.8058L124.636 39.1559L125.003 37.1184L128.69 36.9998ZM129.182 37.2686L130.995 40.3888L129.48 41.7991L128.197 39.0746L129.182 37.2686ZM131.226 40.9412L131.405 45.3L129.927 44.4936L129.659 42.6426L131.226 40.9412ZM124.331 37.178L124.047 39.2603L122.046 40.1928L120.569 39.3864L124.331 37.178ZM121.576 40.4688L120.18 39.7072L118.792 41.0802L119.695 41.573C120.405 41.3969 120.824 41.091 121.576 40.4688ZM131.345 45.8001L130.031 45.0833C129.891 45.7584 129.88 46.2038 130.038 47.2179L130.941 47.7107L131.345 45.8001ZM90.0806 67.9206L91.0657 68.4582C91.0141 67.5217 91.139 66.783 91.6038 65.1296L90.0806 67.9206Z" stroke="#2247D9" stroke-width="0.75"/>
<path d="M26.6745 45.5535C43.4937 45.3085 52.5512 47.895 67.346 57.7442C81.2113 65.7471 89.3476 68.7273 105.017 69.0355C118.662 67.5625 126.885 69.9676 137.688 78.828" stroke="#CF2020"/>
<path d="M23.4753 56.2214C40.2945 55.9763 49.352 58.5628 64.1468 68.412C78.0121 76.4149 86.1484 79.3951 101.818 79.7033C115.462 78.2303 123.686 80.6354 134.488 89.4958" stroke="#CF2020"/>
<path d="M20.28 66.8893C37.0991 66.6442 46.1567 69.2307 60.9515 79.0799C74.8168 87.0828 82.9531 90.063 98.6226 90.3712C112.267 88.8982 120.491 91.3033 131.293 100.164" stroke="#CF2020"/>
<path d="M29.5261 36.0374C46.3452 35.7923 55.4028 38.3789 70.1976 48.228C84.0629 56.231 92.1992 59.2111 107.869 59.5194C121.513 58.0463 129.737 60.4515 140.539 69.3119" stroke="#CF2020"/>
</svg>
