<svg width="169" height="196" viewBox="0 0 169 196" fill="none" xmlns="http://www.w3.org/2000/svg">
<g filter="url(#filter0_d_330_43)">
<mask id="path-1-outside-1_330_43" maskUnits="userSpaceOnUse" x="-68.5247" y="-52.9702" width="276.253" height="279.446" fill="black">
<rect fill="white" x="-68.5247" y="-52.9702" width="276.253" height="279.446"/>
<path d="M39.8301 27.0921L40.7615 28.2117L50.126 41.5856L52.1378 44.4587L58.5201 53.5736C58.5201 53.5736 61.1753 55.5813 63.1933 55.6167L77.0048 55.2477C75.4579 53.9667 74.4624 52.6674 72.6496 50.1766C70.3453 46.7618 69.4313 45.0731 68.9131 43.0909C68.8666 42.913 68.8233 42.7329 68.7825 42.5489L77.387 36.524C77.5569 36.6159 77.7216 36.711 77.8824 36.8105C79.6057 37.8767 80.8723 39.4389 83.1332 42.8359C85.6387 46.508 86.5851 48.1222 86.8764 49.6552L85.7885 50.417C86.4784 52.3349 86.7859 53.3562 87.0895 54.9783L100.157 54.6292L113.833 54.2638L127.289 53.9042L140.817 53.5428L154.345 53.1814L156.805 53.1157C158.925 54.9182 159.909 56.0261 161.283 58.2483L159.206 58.8606L140.881 64.2637L139.17 64.768L128.957 67.7794L129.66 68.7835C130.882 70.5289 130.051 71.1104 128.829 69.365L127.931 68.0819L112.537 72.6205L113.358 73.7926C114.438 75.5461 113.548 76.1694 112.27 74.5544L111.193 73.0167L102.641 75.5382L97.9931 78.7929L97.2019 79.3469L98.1731 80.734C99.3922 82.6856 98.3634 83.1108 97.1841 81.4265L96.2128 80.0394L83.3555 89.0423L83.8411 89.7358L85.8529 92.6089L105.278 120.351C105.804 121.215 106.321 122.123 106.842 123.093C107.351 124.044 107.864 125.055 108.391 126.143C109.875 129.206 111.468 132.878 113.413 137.539L147.843 140.303C149.82 142.21 150.739 143.502 152.005 146.248L150.528 146.663L121.343 154.872L120.306 153.531C122.725 158.93 123.908 161.833 123.508 162.465C123.445 162.651 123.272 162.679 122.99 162.548C121.997 162.212 119.729 160.172 115.953 156.579L116.924 157.966L99.1979 182.605L98.3015 183.851C96.1915 181.578 95.3262 180.269 94.1391 177.907L103.327 144.601C99.4978 140.973 96.655 138.208 94.4359 135.914C93.5688 135.018 92.797 134.193 92.0987 133.416C91.3366 132.569 90.6622 131.779 90.0472 131.016L70.622 103.274L68.1246 99.707L55.1686 108.779L55.7929 109.671C57.4977 112.316 56.4393 112.909 54.705 110.432L54.0807 109.541L53.3884 110.025L48.7398 113.28L43.3631 120.547L44.146 121.665C45.6722 123.844 44.7045 124.522 43.1783 122.342L42.6222 121.548L33.1396 134.363L33.916 135.472C35.3728 137.553 34.4532 138.344 32.927 136.165L32.3824 135.387L26.0211 143.984L25.1123 145.212L13.7529 160.564L12.2382 162.611C10.4711 159.871 9.69817 158.484 9.21391 156.608L10.1164 154.318L15.106 141.657L20.0957 128.996L25.0461 116.435L30.0288 103.792L34.8223 91.6286L34.5865 91.5936C33.1438 90.682 32.3726 90.0707 31.0012 88.7887L29.8144 89.6197C28.1467 88.366 26.821 86.7242 24.3058 83.4367L24.2979 83.4246C22.3677 80.4642 21.2775 78.7922 20.9338 76.6435L20.7162 76.2052L29.4196 70.1111C31.1225 71.1797 32.3541 72.6721 34.7894 76.096C36.5503 78.6028 37.5075 79.9973 38.5477 82.1757L43.6108 69.3286C44.1523 67.1546 44.1024 66.0862 43.2892 64.2384L36.9069 55.1235L34.8951 52.2503L27.7505 42.0469L25.5306 38.8765L24.6981 37.6876C22.46 34.2574 20.6891 31.3985 19.2497 28.782C18.6577 27.7058 18.1217 26.6707 17.6323 25.6536C15.8955 22.0443 14.7456 18.6633 13.7597 14.488C11.7387 4.78481 13.549 3.70035 21.6719 8.94782C25.3903 11.3167 28.2177 13.4772 31.01 16.2864C31.8061 17.0873 32.5993 17.941 33.4095 18.8672C35.3592 21.0961 37.4073 23.7455 39.8301 27.0921Z"/>
</mask>
<path d="M39.8301 27.0921L40.7615 28.2117L50.126 41.5856L52.1378 44.4587L58.5201 53.5736C58.5201 53.5736 61.1753 55.5813 63.1933 55.6167L77.0048 55.2477C75.4579 53.9667 74.4624 52.6674 72.6496 50.1766C70.3453 46.7618 69.4313 45.0731 68.9131 43.0909C68.8666 42.913 68.8233 42.7329 68.7825 42.5489L77.387 36.524C77.5569 36.6159 77.7216 36.711 77.8824 36.8105C79.6057 37.8767 80.8723 39.4389 83.1332 42.8359C85.6387 46.508 86.5851 48.1222 86.8764 49.6552L85.7885 50.417C86.4784 52.3349 86.7859 53.3562 87.0895 54.9783L100.157 54.6292L113.833 54.2638L127.289 53.9042L140.817 53.5428L154.345 53.1814L156.805 53.1157C158.925 54.9182 159.909 56.0261 161.283 58.2483L159.206 58.8606L140.881 64.2637L139.17 64.768L128.957 67.7794L129.66 68.7835C130.882 70.5289 130.051 71.1104 128.829 69.365L127.931 68.0819L112.537 72.6205L113.358 73.7926C114.438 75.5461 113.548 76.1694 112.27 74.5544L111.193 73.0167L102.641 75.5382L97.9931 78.7929L97.2019 79.3469L98.1731 80.734C99.3922 82.6856 98.3634 83.1108 97.1841 81.4265L96.2128 80.0394L83.3555 89.0423L83.8411 89.7358L85.8529 92.6089L105.278 120.351C105.804 121.215 106.321 122.123 106.842 123.093C107.351 124.044 107.864 125.055 108.391 126.143C109.875 129.206 111.468 132.878 113.413 137.539L147.843 140.303C149.82 142.21 150.739 143.502 152.005 146.248L150.528 146.663L121.343 154.872L120.306 153.531C122.725 158.93 123.908 161.833 123.508 162.465C123.445 162.651 123.272 162.679 122.99 162.548C121.997 162.212 119.729 160.172 115.953 156.579L116.924 157.966L99.1979 182.605L98.3015 183.851C96.1915 181.578 95.3262 180.269 94.1391 177.907L103.327 144.601C99.4978 140.973 96.655 138.208 94.4359 135.914C93.5688 135.018 92.797 134.193 92.0987 133.416C91.3366 132.569 90.6622 131.779 90.0472 131.016L70.622 103.274L68.1246 99.707L55.1686 108.779L55.7929 109.671C57.4977 112.316 56.4393 112.909 54.705 110.432L54.0807 109.541L53.3884 110.025L48.7398 113.28L43.3631 120.547L44.146 121.665C45.6722 123.844 44.7045 124.522 43.1783 122.342L42.6222 121.548L33.1396 134.363L33.916 135.472C35.3728 137.553 34.4532 138.344 32.927 136.165L32.3824 135.387L26.0211 143.984L25.1123 145.212L13.7529 160.564L12.2382 162.611C10.4711 159.871 9.69817 158.484 9.21391 156.608L10.1164 154.318L15.106 141.657L20.0957 128.996L25.0461 116.435L30.0288 103.792L34.8223 91.6286L34.5865 91.5936C33.1438 90.682 32.3726 90.0707 31.0012 88.7887L29.8144 89.6197C28.1467 88.366 26.821 86.7242 24.3058 83.4367L24.2979 83.4246C22.3677 80.4642 21.2775 78.7922 20.9338 76.6435L20.7162 76.2052L29.4196 70.1111C31.1225 71.1797 32.3541 72.6721 34.7894 76.096C36.5503 78.6028 37.5075 79.9973 38.5477 82.1757L43.6108 69.3286C44.1523 67.1546 44.1024 66.0862 43.2892 64.2384L36.9069 55.1235L34.8951 52.2503L27.7505 42.0469L25.5306 38.8765L24.6981 37.6876C22.46 34.2574 20.6891 31.3985 19.2497 28.782C18.6577 27.7058 18.1217 26.6707 17.6323 25.6536C15.8955 22.0443 14.7456 18.6633 13.7597 14.488C11.7387 4.78481 13.549 3.70035 21.6719 8.94782C25.3903 11.3167 28.2177 13.4772 31.01 16.2864C31.8061 17.0873 32.5993 17.941 33.4095 18.8672C35.3592 21.0961 37.4073 23.7455 39.8301 27.0921Z" fill="white"/>
<path d="M116.912 146.017L114.599 146.966L114.615 147.006L114.633 147.045L116.912 146.017ZM123.508 162.465L125.62 163.802L125.781 163.548L125.877 163.263L123.508 162.465ZM122.99 162.548L121.936 164.815L122.06 164.873L122.189 164.916L122.99 162.548ZM109.989 150.865L111.718 149.059L111.707 149.049L111.697 149.039L109.989 150.865ZM37.8244 84.011L40.1503 84.9277L37.8244 84.011ZM35.4893 89.936L37.8152 90.8526L35.4893 89.936ZM36.3917 87.6463L38.7176 88.5629L36.3917 87.6463ZM78.9642 55.1954L79.031 57.6945L79.031 57.6945L78.9642 55.1954ZM85.1164 55.031L85.1832 57.5301L85.1164 55.031ZM82.8707 55.091L82.9375 57.5901L82.9375 57.5901L82.8707 55.091ZM16.1785 9.10125L14.7446 7.05337L12.6967 8.48731L14.1307 10.5352L16.1785 9.10125ZM16.8723 10.092L14.8244 11.5259L15.7458 12.8419L17.3257 12.5505L16.8723 10.092ZM22.1774 10.5115L21.3545 12.8722L23.3646 13.5729L24.3767 11.7002L22.1774 10.5115ZM22.4341 10.0364L24.6335 11.2251L25.7875 9.08966L23.6871 7.8731L22.4341 10.0364ZM16.4752 8.8935L16.3446 6.39692L15.6286 6.43439L15.0413 6.84562L16.4752 8.8935ZM21.0748 9.36586L21.9845 7.03724L21.9845 7.03723L21.0748 9.36586ZM20.5131 10.0292L20.0006 12.4761L20.0006 12.4761L20.5131 10.0292ZM15.7829 9.37826L17.8308 7.94432L16.3969 5.89644L14.349 7.33038L15.7829 9.37826ZM16.4767 10.369L18.6689 11.5706L19.4158 10.208L18.5245 8.93506L16.4767 10.369ZM15.1553 15.4284L15.2105 17.9278L17.8339 17.8699L17.6491 15.2523L15.1553 15.4284ZM14.7199 15.438L12.3118 16.1098L12.8336 17.9802L14.775 17.9374L14.7199 15.438ZM15.4862 9.58602L14.0523 7.53814L13.3613 8.02195L13.1047 8.82548L15.4862 9.58602ZM14.8399 11.8104L12.4137 11.2073L12.4137 11.2074L14.8399 11.8104ZM14.5095 13.9629L12.0096 13.9412L12.0096 13.9412L14.5095 13.9629ZM45.4028 69.9932L47.7286 70.9101L48.6644 68.5365L46.2722 67.6492L45.4028 69.9932ZM11.9538 154.837L11.2741 157.243L13.4502 157.857L14.2795 155.754L11.9538 154.837ZM31.8108 104.469L34.1366 105.386L31.8108 104.469ZM35.0115 91.1484L32.6857 90.2317L35.0115 91.1484ZM37.2618 85.4385L34.9359 84.5219L37.2618 85.4385ZM38.5745 87.3132L40.9003 88.2302L40.9003 88.2302L38.5745 87.3132ZM49.3605 99.8526L47.9266 97.8048L45.8787 99.2387L47.3126 101.287L49.3605 99.8526ZM60.0419 92.3734L62.0898 90.9395L60.6558 88.8916L58.608 90.3256L60.0419 92.3734ZM45.41 108.525L43.976 106.477L43.581 106.754L43.3172 107.157L45.41 108.525ZM24.0643 141.189L21.9715 139.822L21.0462 141.238L22.0164 142.623L24.0643 141.189ZM29.1161 133.459L31.2089 134.826L29.1161 133.459ZM27.2427 132.467L25.1521 131.096L23.6465 133.392L26.0732 134.677L27.2427 132.467ZM44.7697 109.505L46.8625 110.872L46.8625 110.872L44.7697 109.505ZM42.9952 108.444L44.2779 106.298L42.2195 105.068L40.9045 107.073L42.9952 108.444ZM36.7227 118.01L34.6321 116.639L36.7227 118.01ZM33.5864 122.793L31.4958 121.422L33.5864 122.793ZM32.2112 128.722L34.304 130.09L34.304 130.09L32.2112 128.722ZM23.2937 142.615L25.3416 141.181L23.1958 138.116L21.1854 141.271L23.2937 142.615ZM12.7595 159.145L10.6512 157.802L9.75336 159.21L10.7116 160.579L12.7595 159.145ZM99.3114 70.7826L98.7308 68.351L98.2676 68.4616L97.8775 68.7347L99.3114 70.7826ZM137.069 61.767L139.117 60.3331L138.142 58.9406L136.489 59.3354L137.069 61.767ZM99.9922 68.3865L99.4228 65.9522L97.0328 66.5112L97.5478 68.9111L99.9922 68.3865ZM127.855 61.8697L130.279 61.2563L129.677 58.8762L127.286 59.4354L127.855 61.8697ZM116.773 64.4616L116.204 62.0273L116.204 62.0273L116.773 64.4616ZM111.687 67.8276L112.268 70.2593L111.687 67.8276ZM106.068 69.1694L106.648 71.6011L106.648 71.6011L106.068 69.1694ZM139.009 61.5901L138.467 59.1494L134.815 59.9596L136.961 63.024L139.009 61.5901ZM158.145 57.3449L160.193 55.911L159.235 54.5424L157.604 54.9043L158.145 57.3449ZM154.273 55.1835L154.34 57.6826L156.687 57.6205L156.772 55.2734L154.273 55.1835ZM63.1063 57.5971L60.6087 57.4874L60.4909 60.1673L63.1724 60.0963L63.1063 57.5971ZM80.4111 55.1567L80.3443 52.6576L80.3443 52.6576L80.4111 55.1567ZM86.6326 54.9905L86.5658 52.4914L86.5658 52.4914L86.6326 54.9905ZM86.6246 56.9745L86.6907 59.4736L86.6246 56.9745ZM100.152 56.6164L100.218 59.1155L100.218 59.1155L100.152 56.6164ZM140.743 55.5417L140.809 58.0408L140.743 55.5417ZM89.9796 71.5585L92.0275 70.1245L90.5935 68.0767L88.5457 69.5106L89.9796 71.5585ZM79.1993 79.1069L77.7654 77.059L75.7175 78.493L77.1514 80.5409L79.1993 79.1069ZM118.323 153.295L120.384 151.879L120.377 151.87L120.371 151.861L118.323 153.295ZM97.9622 180.841L95.7914 179.601L95.0055 180.977L95.9144 182.274L97.9622 180.841ZM113.28 154.021L115.01 152.217L115.01 152.217L113.28 154.021ZM118.788 150.165L116.51 151.195L118.788 150.165ZM149.292 144.899L151.34 143.465L150.43 142.165L148.867 142.435L149.292 144.899ZM19.4297 24.6904L21.6185 23.4823L20.4253 21.3204L18.2488 22.4868L19.4297 24.6904ZM21.0755 27.6722L22.374 29.8085L24.4227 28.5632L23.2642 26.4642L21.0755 27.6722ZM29.4188 17.6959L27.7612 15.8245L25.9683 17.4126L27.4781 19.2719L29.4188 17.6959ZM31.5591 20.3315L29.6184 21.9075L31.1746 23.8238L33.1104 22.2919L31.5591 20.3315ZM37.1699 50.6575L39.2178 49.2235L37.7839 47.1757L35.736 48.6096L37.1699 50.6575ZM39.1817 53.5306L40.6157 55.5785L42.6636 54.1446L41.2296 52.0967L39.1817 53.5306ZM49.6653 46.19L47.6175 47.6239L49.0514 49.6718L51.0993 48.2378L49.6653 46.19ZM47.6535 43.3168L46.2196 41.2689L44.1717 42.7029L45.6056 44.7507L47.6535 43.3168ZM81.3687 91.467L79.9347 89.4191L77.8868 90.8531L79.3208 92.9009L81.3687 91.467ZM83.3805 94.3402L81.3326 95.7741L82.7665 97.822L84.8144 96.388L83.3805 94.3402ZM72.9958 101.612L74.4297 103.659L76.4776 102.226L75.0437 100.178L72.9958 101.612ZM70.984 98.7384L73.0319 97.3045L71.5979 95.2566L69.55 96.6906L70.984 98.7384ZM96.3242 134.297L97.9506 136.195L99.9256 134.504L98.1574 132.597L96.3242 134.297ZM93.9168 131.7L95.75 130.001L94.035 128.151L92.2008 129.882L93.9168 131.7ZM104.499 124.29L103.362 122.064L101.206 123.166L102.238 125.356L104.499 124.29ZM106.017 127.51L103.755 128.576L104.912 131.031L107.264 129.676L106.017 127.51ZM111.106 138.501C112.154 141.012 113.305 143.811 114.599 146.966L119.225 145.068C117.931 141.914 116.775 139.102 115.721 136.576L111.106 138.501ZM121.395 161.128C121.549 160.885 121.77 160.644 122.064 160.453C122.357 160.263 122.656 160.165 122.917 160.124C123.395 160.048 123.73 160.159 123.79 160.18L122.189 164.916C122.506 165.024 123.055 165.165 123.704 165.062C124.474 164.939 125.177 164.502 125.62 163.802L121.395 161.128ZM111.697 149.039C109.19 146.694 106.99 144.628 105.047 142.786L101.608 146.416C103.562 148.268 105.771 150.342 108.281 152.69L111.697 149.039ZM40.1503 84.9277L40.8736 83.0924L36.2218 81.2591L35.4985 83.0944L40.1503 84.9277ZM32.4351 90.8366L34.9077 89.1053L32.0398 85.0095L29.5672 86.7408L32.4351 90.8366ZM34.9077 89.1053L36.589 87.928L33.7211 83.8322L32.0398 85.0095L34.9077 89.1053ZM36.589 87.928L39.2583 86.0589L36.3904 81.9632L33.7211 83.8322L36.589 87.928ZM37.5372 88.502L35.5216 85.6235L31.4258 88.4913L33.4415 91.3699L37.5372 88.502ZM35.5216 85.6235L30.1799 77.9947L26.0842 80.8626L31.4258 88.4913L35.5216 85.6235ZM30.1799 77.9947C29.8382 77.5068 29.8083 77.2903 29.8185 77.3526C29.8244 77.389 29.854 77.5938 29.7674 77.8941C29.6733 78.2205 29.4379 78.6506 28.9669 78.9601C28.5043 79.2642 28.0408 79.3033 27.7491 79.2744C27.4738 79.2472 27.3185 79.1615 27.2971 79.1494C27.2603 79.1286 27.4508 79.2358 27.7655 79.6853L31.8612 76.8174C31.2741 75.9789 30.5694 75.255 29.7555 74.7955C29.0483 74.3962 27.6013 73.8745 26.2209 74.7817C24.7864 75.7244 24.7474 77.3197 24.8833 78.1554C25.0356 79.0916 25.4893 80.013 26.0842 80.8626L30.1799 77.9947ZM37.8152 90.8526L38.7176 88.5629L34.0658 86.7296L33.1635 89.0193L37.8152 90.8526ZM27.7655 79.6853L33.1072 87.3141L37.2029 84.4462L31.8612 76.8174L27.7655 79.6853ZM33.1072 87.3141L34.3438 89.0802L38.4396 86.2123L37.2029 84.4462L33.1072 87.3141ZM22.3677 78.6914L31.131 72.5552L28.2631 68.4595L19.4998 74.5956L22.3677 78.6914ZM78.8975 52.6963L76.9381 52.7486L77.0716 57.7468L79.031 57.6945L78.8975 52.6963ZM76.4485 34.7626L67.4792 41.043L70.3471 45.1387L79.3163 38.8584L76.4485 34.7626ZM87.1643 53.5971L85.2175 50.8168L81.1217 53.6847L83.0685 56.465L87.1643 53.5971ZM85.2175 50.8168L80.0189 43.3924L75.9231 46.2603L81.1217 53.6847L85.2175 50.8168ZM80.0189 43.3924C79.3829 42.4841 78.6829 41.7177 77.9357 41.2052C77.5665 40.9519 77.0749 40.6837 76.487 40.5603C75.8862 40.4341 74.9879 40.4303 74.1566 41.0124C73.3253 41.5945 73.0217 42.4399 72.9347 43.0476C72.8497 43.6422 72.9335 44.196 73.0452 44.6295C73.2713 45.507 73.7521 46.4269 74.3881 47.3351L78.4838 44.4672C78.0445 43.8399 77.9107 43.4737 77.887 43.3817C77.8738 43.3306 77.9239 43.4789 77.8844 43.7556C77.8429 44.0453 77.664 44.6604 77.0245 45.1082C76.385 45.5559 75.7458 45.5137 75.4594 45.4536C75.1858 45.3961 75.0637 45.2983 75.1072 45.3282C75.1855 45.3819 75.4838 45.6329 75.9231 46.2603L80.0189 43.3924ZM85.0496 52.5319L82.804 52.5919L82.9375 57.5901L85.1832 57.5301L85.0496 52.5319ZM74.3881 47.3351L79.5867 54.7595L83.6825 51.8916L78.4838 44.4672L74.3881 47.3351ZM79.5867 54.7595L80.8229 56.525L84.9186 53.6571L83.6825 51.8916L79.5867 54.7595ZM80.3982 57.2433L83.0685 55.3735L80.2006 51.2777L77.5303 53.1475L80.3982 57.2433ZM83.0685 55.3735L84.6036 54.2986L81.7357 50.2029L80.2006 51.2777L83.0685 55.3735ZM84.6036 54.2986L87.2224 52.4649L84.3545 48.3691L81.7357 50.2029L84.6036 54.2986ZM14.1307 10.5352L14.8244 11.5259L18.9201 8.65806L18.2264 7.66731L14.1307 10.5352ZM24.3767 11.7002L24.6335 11.2251L20.2348 8.84781L19.978 9.32289L24.3767 11.7002ZM15.0413 6.84562L14.7446 7.05337L17.6125 11.1491L17.9092 10.9414L15.0413 6.84562ZM19.2162 6.4071C18.3472 6.33154 17.4063 6.34134 16.3446 6.39692L16.6059 11.3901C17.565 11.3399 18.2453 11.3415 18.7831 11.3883L19.2162 6.4071ZM17.3257 12.5505C18.0288 12.4209 18.5279 12.3694 18.9415 12.3667L18.9094 7.36685C18.1032 7.37203 17.2933 7.47219 16.4188 7.63346L17.3257 12.5505ZM16.5069 8.70694L16.4327 9.67604L21.4182 10.0576L21.4923 9.08846L16.5069 8.70694ZM23.6871 7.8731C23.1349 7.55326 22.578 7.26909 21.9845 7.03724L20.1652 11.6945C20.4553 11.8078 20.7773 11.9659 21.1811 12.1998L23.6871 7.8731ZM21.9845 7.03723C21.0968 6.69047 20.2115 6.49364 19.2162 6.4071L18.7831 11.3883C19.3512 11.4377 19.7645 11.538 20.1652 11.6945L21.9845 7.03723ZM18.9415 12.3667C19.2986 12.3645 19.6294 12.3984 20.0006 12.4761L21.0255 7.58226C20.3246 7.43547 19.6393 7.36216 18.9094 7.36685L18.9415 12.3667ZM20.0006 12.4761C20.3676 12.553 20.7932 12.6766 21.3545 12.8722L23.0002 8.15082C22.3278 7.91645 21.6805 7.71943 21.0255 7.58226L20.0006 12.4761ZM19.167 7.7502L18.6053 8.41352L22.4209 11.6448L22.9826 10.9815L19.167 7.7502ZM13.735 10.8122L14.4288 11.8029L18.5245 8.93506L17.8308 7.94432L13.735 10.8122ZM15.1002 12.929L14.6647 12.9386L14.775 17.9374L15.2105 17.9278L15.1002 12.929ZM16.9202 11.6339L17.2169 11.4261L14.349 7.33038L14.0523 7.53814L16.9202 11.6339ZM17.2661 12.4134C17.4012 11.8696 17.5955 11.199 17.8677 10.3466L13.1047 8.82548C12.8139 9.73599 12.5847 10.5193 12.4137 11.2073L17.2661 12.4134ZM14.2844 9.16736C13.8798 9.90539 13.5287 10.6025 13.2586 11.2982L17.9198 13.1075C18.0743 12.7094 18.3064 12.232 18.6689 11.5706L14.2844 9.16736ZM13.6799 14.025L14.4293 14.4175L16.7492 9.98825L15.9999 9.59576L13.6799 14.025ZM17.1279 14.7662C17.0389 14.447 17.0073 14.2364 17.0094 13.9846L12.0096 13.9412C12.0024 14.7777 12.1324 15.4666 12.3118 16.1098L17.1279 14.7662ZM17.0094 13.9847C17.012 13.6868 17.064 13.2263 17.2661 12.4134L12.4137 11.2074C12.1608 12.2248 12.0169 13.1042 12.0096 13.9412L17.0094 13.9847ZM13.2586 11.2982C12.9868 11.9986 12.7986 12.6926 12.7021 13.4439L17.6615 14.0805C17.7001 13.7792 17.7756 13.4789 17.9198 13.1075L13.2586 11.2982ZM12.7021 13.444C12.6103 14.1595 12.6095 14.8671 12.6615 15.6045L17.6491 15.2523C17.6132 14.7433 17.6229 14.3808 17.6615 14.0804L12.7021 13.444ZM15.2249 16.3584L15.8971 16.1577L14.4665 11.3667L13.7942 11.5675L15.2249 16.3584ZM42.7414 71.6726L44.5335 72.3372L46.2722 67.6492L44.4801 66.9846L42.7414 71.6726ZM12.6334 152.431L10.796 151.912L9.43669 156.724L11.2741 157.243L12.6334 152.431ZM14.2967 144.022L16.0412 144.619L17.6598 139.888L15.9154 139.292L14.2967 144.022ZM19.5349 128.791L9.62797 153.92L14.2795 155.754L24.1865 130.625L19.5349 128.791ZM19.1607 131.315L20.9258 132.026L22.7957 127.389L21.0306 126.677L19.1607 131.315ZM24.4942 116.212L19.5349 128.791L24.1865 130.625L29.1458 118.045L24.4942 116.212ZM24.1355 118.763L25.9095 119.457L27.7306 114.8L25.9567 114.107L24.1355 118.763ZM29.485 103.552L24.4942 116.212L29.1458 118.045L34.1366 105.386L29.485 103.552ZM29.1401 106.128L30.9221 106.806L32.6996 102.133L30.9176 101.455L29.1401 106.128ZM37.1482 92.5453L37.3374 92.065L32.6857 90.2317L32.4964 90.712L37.1482 92.5453ZM37.3374 92.065L37.8152 90.8526L33.1635 89.0193L32.6857 90.2317L37.3374 92.065ZM34.4228 91.0279L29.485 103.552L34.1366 105.386L39.0743 92.8617L34.4228 91.0279ZM33.9695 93.4208L35.7065 94.2173L37.7905 89.6723L36.0535 88.8759L33.9695 93.4208ZM38.7176 88.5629L39.5877 86.3551L34.9359 84.5219L34.0658 86.7296L38.7176 88.5629ZM39.5877 86.3551L40.1503 84.9277L35.4985 83.0944L34.9359 84.5219L39.5877 86.3551ZM43.077 69.0763L36.2487 86.3963L40.9003 88.2302L47.7286 70.9101L43.077 69.0763ZM36.2487 86.3963L34.4228 91.0279L39.0743 92.8617L40.9003 88.2302L36.2487 86.3963ZM35.2139 86.8724L36.5266 88.7472L40.6224 85.8793L39.3097 84.0046L35.2139 86.8724ZM54.1833 102.382L51.4084 98.4187L47.3126 101.287L50.0875 105.25L54.1833 102.382ZM50.7944 101.901L61.4758 94.4213L58.608 90.3256L47.9266 97.8048L50.7944 101.901ZM57.994 93.8074L60.7689 97.7704L64.8647 94.9025L62.0898 90.9395L57.994 93.8074ZM61.3829 94.2885L56.0422 98.0281L58.91 102.124L64.2507 98.3843L61.3829 94.2885ZM56.0422 98.0281L50.7015 101.768L53.5693 105.863L58.91 102.124L56.0422 98.0281ZM59.524 98.6421L56.8184 94.7782L52.7227 97.6461L55.4282 101.51L59.524 98.6421ZM70.1725 98.2731L66.8426 93.5175L62.7469 96.3854L66.0767 101.141L70.1725 98.2731ZM66.8426 93.5175L45.3371 62.8044L41.2413 65.6723L62.7469 96.3854L66.8426 93.5175ZM43.3621 109.959L46.692 114.714L50.7877 111.846L47.4578 107.091L43.3621 109.959ZM63.3608 92.9036L61.3829 94.2885L64.2507 98.3843L66.2287 96.9993L63.3608 92.9036ZM50.7015 101.768L48.6245 103.222L51.4924 107.318L53.5693 105.863L50.7015 101.768ZM48.6245 103.222L43.976 106.477L46.8439 110.573L51.4924 107.318L48.6245 103.222ZM55.4362 108.592L52.1063 103.836L48.0106 106.704L51.3405 111.459L55.4362 108.592ZM22.0164 142.623L23.9732 145.418L28.0689 142.55L26.1121 139.755L22.0164 142.623ZM27.0233 132.091L21.9715 139.822L26.157 142.557L31.2089 134.826L27.0233 132.091ZM30.2856 131.249L28.4121 130.257L26.0732 134.677L27.9466 135.668L30.2856 131.249ZM43.3172 107.157L42.6769 108.137L46.8625 110.872L47.5027 109.892L43.3172 107.157ZM41.7124 110.59L43.4869 111.65L46.0524 107.359L44.2779 106.298L41.7124 110.59ZM42.0208 114.489L45.0858 109.815L40.9045 107.073L37.8396 111.747L42.0208 114.489ZM42.6769 108.137L39.5462 112.928L43.7317 115.663L46.8625 110.872L42.6769 108.137ZM38.5118 115.177L40.2205 116.354L43.0574 112.237L41.3486 111.059L38.5118 115.177ZM38.8133 119.381L42.0208 114.489L37.8396 111.747L34.6321 116.639L38.8133 119.381ZM39.5462 112.928L36.4155 117.719L40.601 120.454L43.7317 115.663L39.5462 112.928ZM35.4318 120.151L37.2174 121.227L39.7991 116.945L38.0135 115.869L35.4318 120.151ZM35.6771 124.163L38.8133 119.381L34.6321 116.639L31.4958 121.422L35.6771 124.163ZM36.4155 117.719L33.2136 122.618L37.3991 125.353L40.601 120.454L36.4155 117.719ZM32.1613 124.847L33.8813 126.04L36.7315 121.932L35.0116 120.739L32.1613 124.847ZM29.3333 133.838L32.5052 129.001L28.3239 126.259L25.1521 131.096L29.3333 133.838ZM32.5052 129.001L35.6771 124.163L31.4958 121.422L28.3239 126.259L32.5052 129.001ZM33.2136 122.618L30.1185 127.355L34.304 130.09L37.3992 125.353L33.2136 122.618ZM30.1185 127.355L27.0233 132.091L31.2089 134.826L34.304 130.09L30.1185 127.355ZM29.1157 129.766L30.9124 130.858L33.5101 126.586L31.7134 125.494L29.1157 129.766ZM21.2458 144.049L23.0644 146.646L27.1602 143.778L25.3416 141.181L21.2458 144.049ZM21.1854 141.271L10.6512 157.802L14.8678 160.489L25.402 143.958L21.1854 141.271ZM10.7116 160.579L11.705 161.998L15.8007 159.13L14.8074 157.711L10.7116 160.579ZM53.7346 106.731L52.6467 107.493L55.5146 111.589L56.6025 110.827L53.7346 106.731ZM41.3535 119.06L40.6125 120.061L44.6319 123.035L45.3728 122.034L41.3535 119.06ZM31.13 132.876L30.3727 133.9L34.392 136.874L35.1493 135.85L31.13 132.876ZM56.4722 55.0075L77.9777 85.7206L82.0735 82.8527L60.5679 52.1396L56.4722 55.0075ZM77.9777 85.7206L81.3076 90.4762L85.4034 87.6083L82.0735 82.8527L77.9777 85.7206ZM97.2635 72.2166L100.593 76.9721L104.689 74.1042L101.359 69.3487L97.2635 72.2166ZM96.0971 76.0852L100.745 72.8305L97.8775 68.7347L93.2292 71.9895L96.0971 76.0852ZM92.6153 75.4713L95.9452 80.2269L100.041 77.359L96.7111 72.6034L92.6153 75.4713ZM135.021 63.201L137.123 66.2019L141.218 63.334L139.117 60.3331L135.021 63.201ZM99.892 73.2143L101.029 72.9428L99.8675 68.0796L98.7308 68.351L99.892 73.2143ZM102.892 69.9866L102.436 67.8619L97.5478 68.9111L98.0038 71.0358L102.892 69.9866ZM128.937 66.2792L137.65 64.1987L136.489 59.3354L127.775 61.4159L128.937 66.2792ZM125.432 62.483L125.932 64.4609L130.779 63.2342L130.279 61.2563L125.432 62.483ZM122.852 65.6073L128.425 64.304L127.286 59.4354L121.713 60.7387L122.852 65.6073ZM123.38 67.6059L128.937 66.2792L127.775 61.4159L122.219 62.7426L123.38 67.6059ZM119.862 63.7982L120.379 65.7994L125.22 64.549L124.703 62.5478L119.862 63.7982ZM117.343 66.8959L122.852 65.6073L121.713 60.7387L116.204 62.0273L117.343 66.8959ZM117.811 68.9357L123.38 67.6059L122.219 62.7426L116.65 64.0724L117.811 68.9357ZM114.334 65.0074L114.791 67.0499L119.67 65.9582L119.213 63.9157L114.334 65.0074ZM111.833 68.1845L117.343 66.8959L116.204 62.0273L110.695 63.3159L111.833 68.1845ZM112.268 70.2593L117.811 68.9357L116.65 64.0724L111.106 65.396L112.268 70.2593ZM108.814 66.2489L109.237 68.3263L114.137 67.3289L113.714 65.2515L108.814 66.2489ZM100.562 70.8208L106.197 69.5026L105.059 64.634L99.4228 65.9522L100.562 70.8208ZM106.197 69.5026L111.833 68.1845L110.695 63.3159L105.059 64.634L106.197 69.5026ZM101.029 72.9428L106.648 71.6011L105.487 66.7378L99.8675 68.0795L101.029 72.9428ZM106.648 71.6011L112.268 70.2593L111.106 65.396L105.487 66.7378L106.648 71.6011ZM103.181 67.5801L103.621 69.6812L108.515 68.6576L108.075 66.5565L103.181 67.5801ZM142.929 62.8298L141.057 60.1561L136.961 63.024L138.833 65.6976L142.929 62.8298ZM139.55 64.0307L158.687 59.7856L157.604 54.9043L138.467 59.1494L139.55 64.0307ZM156.097 58.7789L157.159 60.2946L161.254 57.4267L160.193 55.911L156.097 58.7789ZM151.847 53.0915L151.775 55.0936L156.772 55.2734L156.844 53.2712L151.847 53.0915ZM65.6038 57.7069L65.6909 55.7265L60.6957 55.507L60.6087 57.4874L65.6038 57.7069ZM82.804 52.5919L80.3443 52.6576L80.4779 57.6558L82.9375 57.5901L82.804 52.5919ZM80.3443 52.6576L78.8975 52.6963L79.031 57.6945L80.4779 57.6558L80.3443 52.6576ZM81.7077 54.6038L63.0401 55.098L63.1724 60.0963L81.84 59.602L81.7077 54.6038ZM78.3632 56.5907L79.7259 58.5369L83.8217 55.669L82.459 53.7228L78.3632 56.5907ZM87.0227 52.4792L86.5658 52.4914L86.6993 57.4896L87.1562 57.4774L87.0227 52.4792ZM86.5658 52.4914L85.0496 52.5319L85.1832 57.5301L86.6993 57.4896L86.5658 52.4914ZM86.5584 54.4754L81.7077 54.6038L81.84 59.602L86.6907 59.4736L86.5584 54.4754ZM84.1326 54.9804L84.1246 56.9644L89.1245 56.9846L89.1325 55.0006L84.1326 54.9804ZM100.086 54.1172L86.5584 54.4754L86.6907 59.4736L100.218 59.1155L100.086 54.1172ZM97.6572 54.6226L97.652 56.6098L102.652 56.6229L102.657 54.6357L97.6572 54.6226ZM113.664 53.7577L100.086 54.1172L100.218 59.1155L113.797 58.756L113.664 53.7577ZM111.337 54.1346L111.234 56.1277L116.227 56.386L116.33 54.3929L111.337 54.1346ZM127.147 53.4008L113.664 53.7577L113.797 58.756L127.279 58.3991L127.147 53.4008ZM124.791 53.8084L124.715 55.8041L129.711 55.9957L129.787 54.0001L124.791 53.8084ZM154.207 52.6844L140.677 53.0426L140.809 58.0408L154.34 57.6826L154.207 52.6844ZM140.677 53.0426L127.147 53.4008L127.279 58.3991L140.809 58.0408L140.677 53.0426ZM138.319 53.45L138.245 55.4489L143.241 55.6345L143.316 53.6356L138.319 53.45ZM128.638 70.4798L129.664 70.1774L128.25 65.3815L127.224 65.6839L128.638 70.4798ZM111.9 75.4146L113.244 75.0184L111.83 70.2225L110.486 70.6187L111.9 75.4146ZM97.6468 82.0873L98.6358 81.3948L95.7679 77.299L94.7789 77.9916L97.6468 82.0873ZM94.1191 77.4703L96.0971 76.0852L93.2292 71.9895L91.2512 73.3745L94.1191 77.4703ZM94.733 73.9884L92.0275 70.1245L87.9317 72.9924L90.6373 76.8563L94.733 73.9884ZM81.4595 86.3346L83.3388 85.0187L80.4709 80.9229L78.5917 82.2388L81.4595 86.3346ZM77.1514 80.5409L79.857 84.4048L83.9527 81.5369L81.2472 77.673L77.1514 80.5409ZM83.3388 85.0187L88.7289 81.2445L85.8611 77.1487L80.4709 80.9229L83.3388 85.0187ZM88.7289 81.2445L94.1191 77.4703L91.2512 73.3745L85.8611 77.1487L88.7289 81.2445ZM88.5457 69.5106L83.1555 73.2848L86.0234 77.3806L91.4136 73.6064L88.5457 69.5106ZM83.1555 73.2848L77.7654 77.059L80.6333 81.1548L86.0234 77.3806L83.1555 73.2848ZM89.3429 77.7627L86.6373 73.8988L82.5416 76.7666L85.2471 80.6305L89.3429 77.7627ZM109.197 141.376C106.654 137.744 105.004 134.958 104.1 133.07C103.877 132.603 103.706 132.207 103.582 131.879C103.455 131.545 103.387 131.312 103.355 131.167C103.34 131.097 103.337 131.066 103.337 131.069C103.337 131.072 103.339 131.088 103.339 131.115C103.339 131.143 103.338 131.187 103.332 131.245C103.313 131.423 103.194 132.132 102.463 132.644C101.732 133.156 101.025 133.025 100.852 132.982C100.795 132.968 100.752 132.954 100.727 132.944C100.701 132.935 100.687 132.928 100.684 132.927C100.681 132.925 100.709 132.939 100.77 132.977C100.895 133.057 101.091 133.2 101.361 133.433C101.627 133.663 101.941 133.958 102.303 134.328C103.768 135.823 105.822 138.327 108.365 141.959L112.461 139.091C109.836 135.342 107.606 132.596 105.875 130.829C105.024 129.96 104.206 129.237 103.455 128.76C103.089 128.527 102.609 128.267 102.058 128.13C101.522 127.997 100.53 127.894 99.5952 128.548C98.6602 129.203 98.4179 130.17 98.3597 130.719C98.2999 131.285 98.3797 131.824 98.4735 132.248C98.6657 133.116 99.0651 134.132 99.5904 135.229C100.659 137.46 102.477 140.495 105.102 144.244L109.197 141.376ZM108.365 141.959L109.822 144.04L113.918 141.172L112.461 139.091L108.365 141.959ZM109.822 144.04C113.973 149.967 116.93 154.585 118.792 157.831C119.727 159.461 120.358 160.697 120.724 161.552C120.91 161.985 121 162.256 121.035 162.396C121.108 162.683 120.933 162.277 121.138 161.668L125.877 163.263C126.176 162.373 125.969 161.51 125.881 161.164C125.755 160.67 125.555 160.132 125.32 159.582C124.844 158.472 124.107 157.048 123.129 155.344C121.166 151.92 118.116 147.168 113.918 141.172L109.822 144.04ZM124.043 160.281C124.102 160.308 123.777 160.122 122.953 159.293C122.216 158.551 121.256 157.48 120.073 156.05C117.711 153.196 114.552 149.023 110.654 143.457L106.559 146.325C110.502 151.956 113.745 156.246 116.221 159.237C117.456 160.731 118.523 161.928 119.406 162.817C120.201 163.617 121.089 164.422 121.936 164.815L124.043 160.281ZM110.654 143.457L109.197 141.376L105.102 144.244L106.559 146.325L110.654 143.457ZM111.769 139.576L106.774 132.443L102.678 135.31L107.673 142.444L111.769 139.576ZM106.774 132.443C105.879 131.164 104.976 130.132 104.145 129.411C103.737 129.056 103.273 128.713 102.775 128.467C102.402 128.283 101.439 127.862 100.333 128.221C98.8144 128.714 98.4203 130.097 98.3842 130.857C98.3508 131.56 98.5415 132.223 98.7224 132.714C99.1075 133.758 99.8427 135.05 100.898 136.557L104.994 133.689C104.037 132.323 103.582 131.44 103.414 130.985C103.318 130.726 103.392 130.807 103.379 131.094C103.371 131.256 103.329 131.613 103.089 132.012C102.82 132.462 102.389 132.81 101.876 132.977C101.419 133.125 101.045 133.082 100.868 133.047C100.684 133.011 100.577 132.958 100.563 132.951C100.54 132.94 100.642 132.991 100.868 133.187C101.305 133.566 101.943 134.26 102.678 135.31L106.774 132.443ZM100.898 136.557L105.893 143.69L109.989 140.822L104.994 133.689L100.898 136.557ZM105.893 143.69L114.495 155.976L118.591 153.108L109.989 140.822L105.893 143.69ZM114.495 155.976C116.55 158.91 118.224 161.075 119.467 162.487C120.077 163.179 120.65 163.768 121.158 164.18C121.395 164.371 121.75 164.635 122.18 164.819C122.43 164.925 123.785 165.468 125.009 164.444C125.581 163.966 125.809 163.372 125.898 162.977C125.985 162.59 125.973 162.253 125.954 162.038C125.914 161.609 125.796 161.212 125.693 160.918C125.477 160.298 125.124 159.553 124.685 158.733C123.791 157.066 122.363 154.759 120.384 151.879L116.263 154.711C118.188 157.513 119.504 159.652 120.278 161.095C120.672 161.83 120.882 162.307 120.971 162.562C121.021 162.705 120.99 162.658 120.974 162.493C120.967 162.409 120.952 162.182 121.019 161.882C121.088 161.573 121.281 161.045 121.802 160.609C122.349 160.152 122.959 160.045 123.383 160.058C123.765 160.07 124.036 160.175 124.141 160.219C124.346 160.307 124.415 160.384 124.306 160.295C124.124 160.147 123.768 159.805 123.22 159.183C122.149 157.967 120.594 155.969 118.591 153.108L114.495 155.976ZM120.371 151.861L111.769 139.576L107.673 142.444L116.275 154.729L120.371 151.861ZM101.246 181.171L100.01 179.407L95.9144 182.274L97.15 184.039L101.246 181.171ZM117.677 154.768C116.861 153.992 115.974 153.142 115.01 152.217L111.549 155.825C112.513 156.75 113.406 157.606 114.23 158.39L117.677 154.768ZM115.01 152.217C113.997 151.245 112.899 150.19 111.718 149.059L108.259 152.67C109.439 153.8 110.533 154.85 111.549 155.825L115.01 152.217ZM100.133 182.08L115.451 155.261L111.109 152.781L95.7914 179.601L100.133 182.08ZM114.633 147.045C115.305 148.533 115.932 149.918 116.51 151.195L121.065 149.134C120.486 147.853 119.86 146.473 119.19 144.989L114.633 147.045ZM116.51 151.195C117.06 152.409 117.565 153.527 118.024 154.553L122.587 152.509C122.123 151.473 121.615 150.348 121.065 149.134L116.51 151.195ZM119.213 152.628L149.718 147.362L148.867 142.435L118.362 147.701L119.213 152.628ZM147.244 146.333L148.48 148.097L152.576 145.229L151.34 143.465L147.244 146.333ZM18.8132 27.8572L20.6106 26.8939L18.2488 22.4868L16.4514 23.4501L18.8132 27.8572ZM17.241 25.8984L18.8867 28.8802L23.2642 26.4642L21.6185 23.4823L17.241 25.8984ZM19.7769 25.5359L17.9512 26.6457L20.5483 30.9183L22.374 29.8085L19.7769 25.5359ZM29.3524 14.415L27.7612 15.8245L31.0765 19.5673L32.6677 18.1579L29.3524 14.415ZM27.4781 19.2719L29.6184 21.9075L33.4998 18.7555L31.3595 16.12L27.4781 19.2719ZM33.1104 22.2919L34.9609 20.8276L31.8582 16.9068L30.0077 18.3711L33.1104 22.2919ZM36.329 54.2982L38.6039 52.7054L35.736 48.6096L33.4612 50.2025L36.329 54.2982ZM35.1221 52.0914L37.1339 54.9646L41.2296 52.0967L39.2178 49.2235L35.1221 52.0914ZM37.7478 51.4828L35.473 53.0756L38.3408 57.1714L40.6157 55.5785L37.7478 51.4828ZM50.7038 42.4109L48.2314 44.1421L51.0993 48.2378L53.5717 46.5066L50.7038 42.4109ZM51.7132 44.756L49.7014 41.8829L45.6056 44.7507L47.6175 47.6239L51.7132 44.756ZM49.0875 45.3647L51.5599 43.6335L48.692 39.5377L46.2196 41.2689L49.0875 45.3647ZM82.4072 87.6879L79.9347 89.4191L82.8026 93.5149L85.275 91.7837L82.4072 87.6879ZM79.3208 92.9009L81.3326 95.7741L85.4284 92.9062L83.4165 90.0331L79.3208 92.9009ZM84.8144 96.388L87.2869 94.6568L84.419 90.5611L81.9465 92.2923L84.8144 96.388ZM75.0437 100.178L73.0319 97.3045L68.9361 100.172L70.9479 103.046L75.0437 100.178ZM69.55 96.6906L67.2753 98.2833L70.1432 102.379L72.4179 100.786L69.55 96.6906ZM72.056 105.322L74.4297 103.659L71.5618 99.5637L69.1881 101.226L72.056 105.322ZM96.0623 137.813L97.9506 136.195L94.6979 132.398L92.8095 134.015L96.0623 137.813ZM98.1574 132.597L95.75 130.001L92.0837 133.4L94.4911 135.996L98.1574 132.597ZM92.2008 129.882L90.3827 131.598L93.8147 135.234L95.6328 133.518L92.2008 129.882ZM105.704 120.867L103.362 122.064L105.637 126.517L107.979 125.32L105.704 120.867ZM102.238 125.356L103.755 128.576L108.278 126.444L106.761 123.225L102.238 125.356ZM107.264 129.676L109.639 128.309L107.144 123.976L104.769 125.343L107.264 129.676ZM39.8301 27.0921L35.7801 30.0242L35.8787 30.1604L35.9862 30.2896L39.8301 27.0921ZM40.7615 28.2117L44.8573 25.3438L44.7382 25.1738L44.6054 25.0142L40.7615 28.2117ZM24.6981 37.6876L20.5107 40.4199L20.5554 40.4884L20.6024 40.5555L24.6981 37.6876ZM21.6719 8.94782L18.9587 13.1477L18.972 13.1563L18.9853 13.1648L21.6719 8.94782ZM13.7597 14.488L8.86476 15.5075L8.87828 15.5724L8.89352 15.637L13.7597 14.488ZM113.413 137.539L108.799 139.464L109.974 142.278L113.013 142.523L113.413 137.539ZM147.843 140.303L151.313 136.704L150.026 135.462L148.243 135.319L147.843 140.303ZM152.005 146.248L153.359 151.061L159 149.474L156.546 144.153L152.005 146.248ZM121.343 154.872L117.389 157.931L119.452 160.598L122.697 159.685L121.343 154.872ZM120.306 153.531L124.26 150.471L115.743 155.575L120.306 153.531ZM123.508 162.465L119.283 159.791L118.961 160.3L118.769 160.87L123.508 162.465ZM122.99 162.548L125.097 158.014L124.849 157.899L124.591 157.812L122.99 162.548ZM115.953 156.579L119.4 152.957L111.857 159.447L115.953 156.579ZM116.924 157.966L120.983 160.886L123.056 158.005L121.02 155.098L116.924 157.966ZM98.3015 183.851L94.6365 187.252L98.7923 191.731L102.36 186.771L98.3015 183.851ZM94.1391 177.907L89.3192 176.577L88.8074 178.432L89.6716 180.152L94.1391 177.907ZM103.327 144.601L108.147 145.931L108.946 143.036L106.766 140.971L103.327 144.601ZM12.2382 162.611L8.03622 165.321L11.9558 171.398L16.2575 165.585L12.2382 162.611ZM9.21391 156.608L4.56213 154.774L3.96684 156.285L4.37249 157.857L9.21391 156.608ZM43.6108 69.3286L48.2626 71.1619L48.3831 70.8561L48.4625 70.5372L43.6108 69.3286ZM43.2892 64.2384L47.8657 62.2244L47.6674 61.7738L47.385 61.3705L43.2892 64.2384ZM161.283 58.2483L162.697 63.0442L168.982 61.1913L165.536 55.6186L161.283 58.2483ZM156.805 53.1157L160.044 49.3064L158.585 48.0663L156.671 48.1174L156.805 53.1157ZM63.1933 55.6167L63.1055 60.616L63.2162 60.6179L63.3268 60.615L63.1933 55.6167ZM58.5201 53.5736L54.4243 56.4415L54.8761 57.0867L55.5045 57.5618L58.5201 53.5736ZM38.5477 82.1757L34.0357 84.3302L38.9867 94.6986L43.1995 84.009L38.5477 82.1757ZM34.7894 76.096L38.8808 73.2219L38.8724 73.2099L38.8638 73.1979L34.7894 76.096ZM29.4196 70.1111L32.0773 65.8759L29.2683 64.1132L26.5517 66.0153L29.4196 70.1111ZM20.7162 76.2052L17.8483 72.1095L14.3255 74.5762L16.2376 78.4283L20.7162 76.2052ZM24.3058 83.4367L20.1167 86.1664L20.2199 86.3247L20.3347 86.4748L24.3058 83.4367ZM29.8144 89.6197L26.8098 93.6163L29.71 95.7966L32.6822 93.7155L29.8144 89.6197ZM31.0012 88.7887L34.4156 85.1361L31.4541 82.3677L28.1333 84.6929L31.0012 88.7887ZM34.5865 91.5936L31.9157 95.8205L32.8079 96.3843L33.8519 96.5393L34.5865 91.5936ZM34.8223 91.6286L39.4741 93.4619L41.7813 87.6074L35.5569 86.6829L34.8223 91.6286ZM20.9338 76.6435L25.871 75.8536L25.7508 75.1021L25.4124 74.4205L20.9338 76.6435ZM24.2979 83.4246L28.4871 80.6949L28.4863 80.6937L24.2979 83.4246ZM86.8764 49.6552L89.7443 53.751L92.3917 51.8972L91.7885 48.7221L86.8764 49.6552ZM83.1332 42.8359L78.9708 45.6062L78.9867 45.6302L79.003 45.654L83.1332 42.8359ZM77.387 36.524L79.7663 32.1264L77.0495 30.6564L74.5191 32.4282L77.387 36.524ZM68.7825 42.5489L65.9146 38.4531L63.1773 40.3698L63.9013 43.6321L68.7825 42.5489ZM77.0048 55.2477L77.1384 60.246L90.4504 59.8903L80.1939 51.3968L77.0048 55.2477ZM72.6496 50.1766L68.5049 52.9733L68.5546 53.047L68.6069 53.1189L72.6496 50.1766ZM77.8824 36.8105L80.5131 32.5585L80.5131 32.5585L77.8824 36.8105ZM68.9131 43.0909L73.7505 41.8262L73.7505 41.8262L68.9131 43.0909ZM85.7885 50.417L82.9206 46.3213L79.79 48.5133L81.0836 52.1094L85.7885 50.417ZM87.0895 54.9783L82.1748 55.898L82.9593 60.0904L87.223 59.9765L87.0895 54.9783ZM10.1164 154.318L14.7681 156.151L14.7681 156.151L10.1164 154.318ZM20.0957 128.996L15.4439 127.163L15.4439 127.163L20.0957 128.996ZM25.0461 116.435L29.6979 118.268L29.6979 118.268L25.0461 116.435ZM30.0288 103.792L25.377 101.958L30.0288 103.792ZM68.1246 99.707L72.2204 96.8391L69.3525 92.7434L65.2567 95.6113L68.1246 99.707ZM48.7398 113.28L45.872 109.185L45.2049 109.652L44.7205 110.306L48.7398 113.28ZM26.0211 143.984L22.0017 141.01L26.0211 143.984ZM25.1123 145.212L29.1316 148.186L25.1123 145.212ZM13.7529 160.564L9.73355 157.59L13.7529 160.564ZM54.0807 109.541L58.1764 106.673L55.3085 102.577L51.2128 105.445L54.0807 109.541ZM55.7929 109.671L59.9957 106.962L59.9437 106.881L59.8887 106.803L55.7929 109.671ZM55.1686 108.779L52.3007 104.683L48.2049 107.551L51.0728 111.647L55.1686 108.779ZM43.3631 120.547L39.3438 117.573L37.2028 120.466L39.2674 123.415L43.3631 120.547ZM42.6222 121.548L46.718 118.68L42.7342 112.991L38.6029 118.574L42.6222 121.548ZM33.1396 134.363L29.1203 131.389L26.9793 134.283L29.0439 137.231L33.1396 134.363ZM32.3824 135.387L36.4781 132.519L32.4943 126.83L28.363 132.413L32.3824 135.387ZM83.3555 89.0423L80.4876 84.9465L76.3919 87.8144L79.2597 91.9101L83.3555 89.0423ZM102.641 75.5382L101.227 70.7423L100.443 70.9735L99.7734 71.4424L102.641 75.5382ZM139.17 64.768L137.756 59.9721L137.756 59.9721L139.17 64.768ZM140.881 64.2637L142.295 69.0596L142.295 69.0596L140.881 64.2637ZM159.206 58.8606L160.62 63.6565L160.62 63.6565L159.206 58.8606ZM154.345 53.1814L154.212 48.1831L154.345 53.1814ZM100.157 54.6292L100.291 59.6274L100.157 54.6292ZM113.833 54.2638L113.7 49.2655L113.7 49.2655L113.833 54.2638ZM127.289 53.9042L127.423 58.9025L127.423 58.9025L127.289 53.9042ZM140.817 53.5428L140.684 48.5446L140.684 48.5446L140.817 53.5428ZM128.957 67.7794L127.543 62.9835L120.872 64.9503L124.861 70.6473L128.957 67.7794ZM127.931 68.0819L132.027 65.214L129.965 62.2694L126.517 63.286L127.931 68.0819ZM112.537 72.6205L111.123 67.8246L104.452 69.7914L108.442 75.4883L112.537 72.6205ZM113.358 73.7926L117.615 71.1697L117.538 71.0449L117.454 70.9247L113.358 73.7926ZM112.27 74.5544L108.174 77.4222L108.258 77.5424L108.35 77.6574L112.27 74.5544ZM111.193 73.0167L115.289 70.1488L113.227 67.2042L109.779 68.2208L111.193 73.0167ZM97.2019 79.3469L94.334 75.2512L90.2382 78.1191L93.1061 82.2148L97.2019 79.3469ZM98.1731 80.734L102.414 78.0849L102.344 77.9736L102.269 77.8661L98.1731 80.734ZM96.2128 80.0394L100.309 77.1716L97.4407 73.0758L93.345 75.9437L96.2128 80.0394ZM99.1979 182.605L95.1392 179.685L95.1392 179.685L99.1979 182.605ZM150.528 146.663L149.174 141.85L149.174 141.85L150.528 146.663ZM17.6323 25.6536L13.1268 27.8217L13.1268 27.8217L17.6323 25.6536ZM19.2497 28.782L23.6305 26.3719L23.6305 26.3719L19.2497 28.782ZM31.01 16.2864L27.4638 19.8113L31.01 16.2864ZM33.4095 18.8672L29.6461 22.1591L29.6461 22.1591L33.4095 18.8672ZM105.278 120.351L109.549 117.752L109.466 117.615L109.374 117.483L105.278 120.351ZM90.0472 131.016L85.9515 133.884L86.0482 134.022L86.1539 134.153L90.0472 131.016ZM94.4359 135.914L98.0299 132.438L98.0298 132.438L94.4359 135.914ZM92.0987 133.416L95.8166 130.073L95.8166 130.073L92.0987 133.416ZM106.842 123.093L111.248 120.73L111.248 120.73L106.842 123.093ZM108.391 126.143L103.891 128.322L103.891 128.322L108.391 126.143ZM35.9862 30.2896L36.9176 31.4093L44.6054 25.0142L43.674 23.8945L35.9862 30.2896ZM31.8463 39.179L29.6264 36.0086L21.4349 41.7444L23.6548 44.9148L31.8463 39.179ZM29.6264 36.0086L28.7939 34.8197L20.6024 40.5555L21.4349 41.7444L29.6264 36.0086ZM24.385 4.74797C22.2951 3.39782 20.293 2.23967 18.4945 1.55895C17.0304 1.00478 13.9122 0.0607992 11.0964 1.97941C8.27365 3.90275 8.01554 7.15901 8.00129 8.74596C7.98384 10.689 8.34417 13.0081 8.86476 15.5075L18.6547 13.4684C18.4176 12.3303 18.2487 11.3747 18.1413 10.5795C18.0879 10.1843 18.0514 9.84127 18.029 9.54563C18.0065 9.24885 17.9993 9.01502 18.0009 8.83578C18.0025 8.65464 18.013 8.55423 18.0178 8.51864C18.0229 8.48086 18.0175 8.5477 17.9708 8.68584C17.9236 8.82597 17.8224 9.0733 17.6209 9.36327C17.4123 9.66358 17.1176 9.97745 16.7272 10.2434C16.337 10.5093 15.9379 10.6683 15.5838 10.7524C15.2418 10.8337 14.9761 10.8376 14.8295 10.8307C14.6848 10.8239 14.6208 10.8048 14.6573 10.8136C14.6916 10.8219 14.7876 10.8482 14.9546 10.9114C15.1198 10.974 15.3319 11.064 15.596 11.1902C15.8592 11.316 16.1605 11.4712 16.5032 11.6602C17.193 12.0403 18.0056 12.5319 18.9587 13.1477L24.385 4.74797ZM113.013 142.523L147.443 145.287L148.243 135.319L113.814 132.555L113.013 142.523ZM144.372 143.903C145.875 145.351 146.442 146.124 147.465 148.342L156.546 144.153C155.036 140.881 153.766 139.068 151.313 136.704L144.372 143.903ZM125.298 151.812L124.26 150.471L116.351 156.591L117.389 157.931L125.298 151.812ZM115.743 155.575C116.96 158.292 117.793 160.222 118.275 161.522C118.523 162.191 118.605 162.503 118.62 162.578C118.629 162.618 118.581 162.421 118.584 162.081C118.586 161.823 118.613 160.85 119.283 159.791L127.732 165.139C128.502 163.922 128.579 162.72 128.584 162.162C128.589 161.52 128.496 160.951 128.412 160.546C128.242 159.729 127.953 158.86 127.653 158.049C127.038 156.39 126.071 154.169 124.869 151.487L115.743 155.575ZM124.591 157.812C125.075 157.975 125.243 158.15 124.914 157.915C124.675 157.743 124.307 157.452 123.777 156.996C122.719 156.085 121.289 154.755 119.4 152.957L112.506 160.201C114.393 161.996 115.985 163.483 117.253 164.575C117.886 165.119 118.507 165.626 119.09 166.044C119.584 166.398 120.408 166.953 121.388 167.285L124.591 157.812ZM111.857 159.447L112.829 160.834L121.02 155.098L120.049 153.711L111.857 159.447ZM101.967 180.45C100.181 178.526 99.5844 177.607 98.6067 175.662L89.6716 180.152C91.0681 182.931 92.2024 184.629 94.6365 187.252L101.967 180.45ZM98.9591 179.236L108.147 145.931L98.5072 143.271L89.3192 176.577L98.9591 179.236ZM16.4401 159.901C14.6926 157.191 14.3215 156.39 14.0553 155.358L4.37249 157.857C5.07489 160.579 6.24966 162.55 8.03622 165.321L16.4401 159.901ZM48.4625 70.5372C48.7774 69.2729 49.0408 67.8833 48.9489 66.3601C48.8536 64.7793 48.402 63.4432 47.8657 62.2244L38.7127 66.2523C38.8552 66.5761 38.9168 66.7595 38.9446 66.8586C38.9577 66.9049 38.9627 66.931 38.9645 66.9417C38.9663 66.9516 38.9667 66.957 38.9671 66.9623C38.9681 66.9787 38.9856 67.2104 38.759 68.12L48.4625 70.5372ZM165.536 55.6186C163.856 52.9026 162.514 51.4063 160.044 49.3064L153.566 56.925C155.336 58.43 155.962 59.1496 157.031 60.8781L165.536 55.6186ZM63.2811 50.6175C63.5303 50.6219 63.5623 50.6713 63.3166 50.5822C63.1034 50.5049 62.8281 50.3769 62.5188 50.2059C62.2189 50.0401 61.9507 49.8694 61.7584 49.7399C61.6646 49.6768 61.5946 49.6274 61.5545 49.5986C61.5346 49.5843 61.5226 49.5754 61.5191 49.5729C61.5173 49.5716 61.5178 49.5719 61.5205 49.5739C61.5219 49.575 61.5238 49.5764 61.5263 49.5783C61.5276 49.5792 61.529 49.5803 61.5306 49.5815C61.5313 49.5821 61.5322 49.5827 61.533 49.5833C61.5334 49.5836 61.5341 49.5842 61.5343 49.5843C61.535 49.5848 61.5357 49.5853 58.5201 53.5736C55.5045 57.5618 55.5052 57.5624 55.5059 57.5629C55.5061 57.5631 55.5069 57.5637 55.5074 57.564C55.5084 57.5648 55.5094 57.5656 55.5105 57.5664C55.5127 57.5681 55.5151 57.5699 55.5177 57.5718C55.5227 57.5756 55.5285 57.5799 55.535 57.5848C55.5479 57.5944 55.5635 57.606 55.5817 57.6194C55.6181 57.6463 55.665 57.6806 55.7217 57.7213C55.8347 57.8024 55.9879 57.9102 56.1746 58.0358C56.5432 58.2839 57.065 58.6173 57.6811 58.9579C58.7004 59.5213 60.7894 60.5753 63.1055 60.616L63.2811 50.6175ZM43.1995 84.009L48.2626 71.1619L38.959 67.4953L33.8959 80.3425L43.1995 84.009ZM43.0597 80.0212C41.8217 77.4286 40.6451 75.7334 38.8808 73.2219L30.698 78.9701C32.4556 81.4721 33.1933 82.566 34.0357 84.3302L43.0597 80.0212ZM38.8638 73.1979C36.4889 69.8589 34.739 67.5462 32.0773 65.8759L26.7619 74.3462C27.506 74.8132 28.2192 75.4853 30.7149 78.994L38.8638 73.1979ZM26.5517 66.0153L17.8483 72.1095L23.5841 80.301L32.2875 74.2068L26.5517 66.0153ZM20.3347 86.4748C22.7576 89.6416 24.4931 91.8746 26.8098 93.6163L32.8189 85.6231C31.8003 84.8574 30.8845 83.8068 28.2769 80.3985L20.3347 86.4748ZM32.6822 93.7155L33.8691 92.8844L28.1333 84.6929L26.9465 85.524L32.6822 93.7155ZM27.5868 92.4413C29.1499 93.9025 30.1674 94.7158 31.9157 95.8205L37.2574 87.3667C36.1202 86.6482 35.5953 86.2389 34.4156 85.1361L27.5868 92.4413ZM33.8519 96.5393L34.0877 96.5744L35.5569 86.6829L35.3211 86.6479L33.8519 96.5393ZM16.2376 78.4283L16.4551 78.8665L25.4124 74.4205L25.1949 73.9822L16.2376 78.4283ZM15.9966 77.4334C16.5421 80.843 18.3492 83.4556 20.1096 86.1555L28.4863 80.6937C26.3862 77.4728 26.013 76.7414 25.871 75.8536L15.9966 77.4334ZM20.1088 86.1543L20.1167 86.1664L28.4949 80.707L28.4871 80.6949L20.1088 86.1543ZM91.7885 48.7221C91.2639 45.9602 89.5988 43.4406 87.2633 40.0178L79.003 45.654C80.2574 47.4925 81.0022 48.6449 81.4653 49.4776C81.9038 50.2662 81.9537 50.5329 81.9642 50.5884L91.7885 48.7221ZM74.5191 32.4282L65.9146 38.4531L71.6504 46.6446L80.2548 40.6197L74.5191 32.4282ZM76.8713 50.2495L63.0598 50.6185L63.3268 60.615L77.1384 60.246L76.8713 50.2495ZM68.6069 53.1189C70.3973 55.5788 71.7238 57.3663 73.8158 59.0987L80.1939 51.3968C79.192 50.5671 78.5274 49.7559 76.6922 47.2343L68.6069 53.1189ZM87.2955 40.0656C85.0588 36.705 83.2692 34.2637 80.5131 32.5585L75.2517 41.0625C75.9423 41.4898 76.6857 42.1729 78.9708 45.6062L87.2955 40.0656ZM80.5131 32.5585C80.2656 32.4054 80.0168 32.2619 79.7663 32.1264L75.0076 40.9215C75.097 40.9699 75.1776 41.0167 75.2517 41.0625L80.5131 32.5585ZM63.9013 43.6321C63.9545 43.8721 64.0123 44.113 64.0757 44.3555L73.7505 41.8262C73.721 41.7131 73.6922 41.5936 73.6638 41.4656L63.9013 43.6321ZM64.0757 44.3555C64.8242 47.2185 66.1655 49.5064 68.5049 52.9733L76.7942 47.3798C74.5251 44.0171 74.0385 42.9277 73.7505 41.8262L64.0757 44.3555ZM88.6563 54.5128L89.7443 53.751L84.0085 45.5595L82.9206 46.3213L88.6563 54.5128ZM92.0041 54.0586C91.6343 52.0822 91.2355 50.7879 90.4933 48.7246L81.0836 52.1094C81.7212 53.8819 81.9375 54.6301 82.1748 55.898L92.0041 54.0586ZM13.8657 158.441L14.7681 156.151L5.46458 152.484L4.56213 154.774L13.8657 158.441ZM14.7681 156.151L19.7578 143.49L10.4542 139.824L5.46459 152.484L14.7681 156.151ZM19.7578 143.49L24.7475 130.829L15.4439 127.163L10.4542 139.824L19.7578 143.49ZM24.7475 130.829L29.6979 118.268L20.3943 114.602L15.4439 127.163L24.7475 130.829ZM29.6979 118.268L34.6806 105.625L25.377 101.958L20.3943 114.602L29.6979 118.268ZM34.6806 105.625L39.4741 93.4619L30.1705 89.7953L25.377 101.958L34.6806 105.625ZM50.5205 105.93L45.872 109.185L51.6077 117.376L56.2562 114.121L50.5205 105.93ZM22.0017 141.01L21.093 142.238L29.1316 148.186L30.0404 146.958L22.0017 141.01ZM21.093 142.238L9.73355 157.59L17.7722 163.538L29.1316 148.186L21.093 142.238ZM9.73355 157.59L8.21886 159.637L16.2575 165.585L17.7722 163.538L9.73355 157.59ZM51.2128 105.445L50.5205 105.93L56.2562 114.121L56.9485 113.636L51.2128 105.445ZM49.9849 112.409L50.6093 113.3L58.8008 107.565L58.1764 106.673L49.9849 112.409ZM50.6093 113.3C51.1968 114.139 51.9058 114.986 52.7368 115.646C53.1336 115.961 53.7847 116.417 54.652 116.711C55.4433 116.98 57.316 117.395 59.2081 116.2C61.1568 114.97 61.57 113.027 61.6405 112.111C61.7141 111.153 61.5289 110.344 61.3861 109.854C61.0853 108.823 60.5572 107.833 59.9957 106.962L51.5902 112.379C51.8811 112.831 51.86 112.907 51.786 112.654C51.7566 112.553 51.6147 112.061 51.6699 111.344C51.7219 110.668 52.0546 108.89 53.8692 107.745C55.6272 106.634 57.312 107.054 57.8698 107.243C58.5036 107.459 58.8757 107.751 58.956 107.815C59.1541 107.972 59.0804 107.964 58.8008 107.565L50.6093 113.3ZM65.2567 95.6113L52.3007 104.683L58.0365 112.875L70.9925 103.803L65.2567 95.6113ZM59.8887 106.803L59.2643 105.911L51.0728 111.647L51.6972 112.538L59.8887 106.803ZM44.7205 110.306L39.3438 117.573L47.3825 123.521L52.7592 116.254L44.7205 110.306ZM39.2674 123.415L40.0502 124.533L48.2417 118.797L47.4589 117.679L39.2674 123.415ZM40.0502 124.533C40.2597 124.832 40.1699 124.789 40.0613 124.424C40.0126 124.261 39.8685 123.736 39.9303 122.996C39.9907 122.271 40.3357 120.665 41.9389 119.543C43.5422 118.42 45.1696 118.645 45.8708 118.836C46.5872 119.031 47.0312 119.346 47.1681 119.448C47.4738 119.675 47.4836 119.774 47.2741 119.474L39.0826 125.21C39.6362 126.001 40.3393 126.833 41.208 127.477C41.6263 127.788 42.3193 128.233 43.2445 128.485C44.1544 128.733 45.9505 128.941 47.6747 127.734C49.3989 126.527 49.8171 124.768 49.8956 123.828C49.9754 122.872 49.794 122.069 49.6453 121.57C49.3365 120.533 48.7953 119.588 48.2417 118.797L40.0502 124.533ZM47.2741 119.474L46.718 118.68L38.5264 124.416L39.0826 125.21L47.2741 119.474ZM38.6029 118.574L29.1203 131.389L37.159 137.337L46.6415 124.522L38.6029 118.574ZM29.0439 137.231L29.8203 138.34L38.0118 132.604L37.2354 131.495L29.0439 137.231ZM29.8203 138.34C29.9946 138.589 29.8914 138.518 29.7821 138.135C29.7315 137.957 29.603 137.451 29.6647 136.745C29.7241 136.064 30.0361 134.584 31.471 133.469C32.9719 132.302 34.5864 132.39 35.4078 132.577C36.192 132.756 36.6864 133.092 36.8477 133.208C37.2003 133.461 37.2324 133.596 37.0228 133.297L28.8312 139.033C29.3847 139.823 30.1041 140.676 31.0128 141.329C31.4522 141.645 32.1919 142.1 33.1817 142.327C34.2087 142.561 35.9891 142.623 37.6093 141.363C39.1634 140.155 39.5481 138.515 39.6267 137.615C39.7076 136.69 39.5447 135.905 39.3993 135.395C39.1004 134.345 38.5659 133.396 38.0118 132.604L29.8203 138.34ZM28.363 132.413L22.0017 141.01L30.0404 146.958L36.4017 138.361L28.363 132.413ZM37.0228 133.297L36.4781 132.519L28.2866 138.255L28.8312 139.033L37.0228 133.297ZM100.861 82.8887L105.509 79.6339L99.7734 71.4424L95.1252 74.6972L100.861 82.8887ZM140.584 69.5639L142.295 69.0596L139.467 59.4678L137.756 59.9721L140.584 69.5639ZM142.295 69.0596L160.62 63.6565L157.792 54.0647L139.467 59.4678L142.295 69.0596ZM160.62 63.6565L162.697 63.0442L159.869 53.4524L157.792 54.0647L160.62 63.6565ZM156.671 48.1174L154.212 48.1832L154.479 58.1796L156.938 58.1139L156.671 48.1174ZM100.024 49.6309L86.9559 49.9801L87.223 59.9765L100.291 59.6274L100.024 49.6309ZM113.7 49.2655L100.024 49.6309L100.291 59.6274L113.967 59.262L113.7 49.2655ZM127.156 48.906L113.7 49.2655L113.967 59.262L127.423 58.9025L127.156 48.906ZM154.212 48.1831L140.684 48.5446L140.951 58.541L154.479 58.1796L154.212 48.1831ZM140.684 48.5446L127.156 48.906L127.423 58.9025L140.951 58.541L140.684 48.5446ZM130.371 72.5753L140.585 69.5639L137.756 59.9721L127.543 62.9835L130.371 72.5753ZM124.861 70.6473L125.564 71.6513L133.755 65.9156L133.052 64.9115L124.861 70.6473ZM125.564 71.6513C125.684 71.8221 125.527 71.6574 125.396 71.1806C125.334 70.9562 125.199 70.3828 125.291 69.6081C125.384 68.8212 125.796 67.3356 127.293 66.2875C128.79 65.2395 130.327 65.3598 131.098 65.5416C131.858 65.7205 132.35 66.0436 132.54 66.1783C132.943 66.4645 133.045 66.6678 132.925 66.4971L124.733 72.2329C125.225 72.9348 125.888 73.72 126.753 74.3335C127.173 74.6319 127.871 75.055 128.804 75.2749C129.749 75.4976 131.428 75.5998 133.029 74.479C134.63 73.3583 135.108 71.7454 135.222 70.7813C135.334 69.8294 135.175 69.0287 135.039 68.5317C134.758 67.5094 134.247 66.6175 133.755 65.9156L125.564 71.6513ZM132.925 66.4971L132.027 65.214L123.835 70.9498L124.733 72.2329L132.925 66.4971ZM113.951 77.4164L129.345 72.8778L126.517 63.286L111.123 67.8246L113.951 77.4164ZM108.442 75.4883L109.262 76.6605L117.454 70.9247L116.633 69.7526L108.442 75.4883ZM109.101 76.4154C109.181 76.5455 108.996 76.3025 108.897 75.7328C108.865 75.5471 108.443 73.013 110.831 71.3409C113.219 69.6689 115.456 70.9323 115.619 71.0261C116.121 71.3138 116.286 71.5711 116.191 71.4513L108.35 77.6574C108.894 78.3451 109.649 79.1302 110.644 79.7005C111.3 80.0768 113.931 81.3776 116.566 79.5324C119.202 77.6873 118.879 74.7695 118.75 74.0242C118.554 72.8949 118.075 71.9164 117.615 71.1697L109.101 76.4154ZM104.055 80.3341L112.607 77.8126L109.779 68.2208L101.227 70.7423L104.055 80.3341ZM116.366 71.6865L115.289 70.1488L107.098 75.8846L108.174 77.4222L116.366 71.6865ZM100.07 83.4427L100.861 82.8887L95.1252 74.6972L94.334 75.2512L100.07 83.4427ZM93.1061 82.2148L94.0773 83.6019L102.269 77.8661L101.298 76.479L93.1061 82.2148ZM93.9325 83.383C94.0739 83.6095 93.8999 83.413 93.7925 82.866C93.74 82.5989 93.6419 81.9443 93.8418 81.1011C94.0615 80.1746 94.7029 78.8743 96.1554 78.0698C97.5231 77.3123 98.8192 77.4368 99.4978 77.5988C100.18 77.7617 100.633 78.0411 100.832 78.1773C101.24 78.4569 101.358 78.6701 101.28 78.5586L93.0883 84.2944C93.5999 85.025 94.2883 85.8167 95.1834 86.4293C95.6255 86.7319 96.3004 87.1165 97.1756 87.3255C98.0471 87.5335 99.5068 87.645 101.001 86.8176C102.579 85.9433 103.309 84.5163 103.572 83.4086C103.815 82.3842 103.714 81.4938 103.605 80.9387C103.384 79.8158 102.882 78.8343 102.414 78.0849L93.9325 83.383ZM86.2234 93.138L99.0807 84.1352L93.345 75.9437L80.4876 84.9465L86.2234 93.138ZM101.28 78.5586L100.309 77.1716L92.1171 82.9073L93.0883 84.2944L101.28 78.5586ZM118.769 160.87C118.964 160.291 119.348 159.535 120.081 158.871C120.839 158.183 121.721 157.821 122.534 157.689C123.935 157.463 124.939 157.941 125.097 158.014L120.883 167.083C121.322 167.287 122.554 167.816 124.128 167.561C125.027 167.416 125.982 167.019 126.799 166.278C127.59 165.561 128.02 164.732 128.246 164.06L118.769 160.87ZM112.866 155.046L95.1392 179.685L103.257 185.525L120.983 160.886L112.866 155.046ZM95.1392 179.685L94.2428 180.931L102.36 186.771L103.257 185.525L95.1392 179.685ZM150.651 141.434L149.174 141.85L151.881 151.476L153.359 151.061L150.651 141.434ZM149.174 141.85L119.989 150.059L122.697 159.685L151.881 151.476L149.174 141.85ZM22.1378 23.4856C20.5794 20.2469 19.5411 17.2148 18.6259 13.339L8.89352 15.637C9.9501 20.1117 11.2116 23.8416 13.1268 27.8217L22.1378 23.4856ZM28.8856 34.9553C26.6753 31.5678 24.982 28.8286 23.6305 26.3719L14.8689 31.1921C16.3963 33.9684 18.2447 36.947 20.5107 40.4199L28.8856 34.9553ZM23.6305 26.3719C23.0769 25.3657 22.5834 24.4115 22.1378 23.4856L13.1268 27.8217C13.66 28.9298 14.2384 30.046 14.8689 31.1921L23.6305 26.3719ZM18.9853 13.1648C22.4824 15.3927 24.9973 17.3298 27.4638 19.8113L34.5562 12.7616C31.438 9.6245 28.2981 7.24075 24.3584 4.73087L18.9853 13.1648ZM27.4638 19.8113C28.1778 20.5296 28.8987 21.3047 29.6461 22.1591L37.1729 15.5752C36.2999 14.5772 35.4344 13.6451 34.5562 12.7616L27.4638 19.8113ZM29.6461 22.1591C31.4523 24.224 33.3991 26.7354 35.7801 30.0242L43.8802 24.16C41.4155 20.7556 39.2662 17.9683 37.1729 15.5752L29.6461 22.1591ZM38.9909 49.3825L31.8463 39.179L23.6548 44.9148L30.7993 55.1182L38.9909 49.3825ZM47.385 61.3705L41.0027 52.2556L32.8111 57.9914L39.1934 67.1062L47.385 61.3705ZM41.0027 52.2556L38.9909 49.3825L30.7993 55.1182L32.8111 57.9914L41.0027 52.2556ZM48.042 47.3266L54.4243 56.4415L62.6158 50.7057L56.2335 41.5909L48.042 47.3266ZM36.6657 31.0796L46.0302 44.4535L54.2217 38.7177L44.8573 25.3438L36.6657 31.0796ZM46.0302 44.4535L48.042 47.3266L56.2335 41.5909L54.2217 38.7177L46.0302 44.4535ZM79.2597 91.9101L79.7453 92.6037L87.9369 86.8679L87.4513 86.1744L79.2597 91.9101ZM79.7453 92.6037L81.7572 95.4768L89.9487 89.7411L87.9369 86.8679L79.7453 92.6037ZM81.7572 95.4768L101.182 123.219L109.374 117.483L89.9487 89.7411L81.7572 95.4768ZM94.143 128.148L74.7178 100.406L66.5263 106.142L85.9515 133.884L94.143 128.148ZM74.7178 100.406L72.2204 96.8391L64.0289 102.575L66.5263 106.142L74.7178 100.406ZM106.766 140.971C102.95 137.356 100.171 134.652 98.0299 132.438L90.8419 139.39C93.139 141.765 96.0458 144.59 99.8882 148.231L106.766 140.971ZM98.0298 132.438C97.1968 131.577 96.4672 130.797 95.8166 130.073L88.3809 136.76C89.1267 137.589 89.9409 138.459 90.8419 139.39L98.0298 132.438ZM95.8166 130.073C95.1071 129.284 94.4921 128.563 93.9406 127.879L86.1539 134.153C86.8322 134.995 87.5661 135.854 88.3809 136.76L95.8166 130.073ZM101.007 122.95C101.48 123.729 101.953 124.557 102.435 125.456L111.248 120.73C110.689 119.688 110.127 118.701 109.549 117.752L101.007 122.95ZM102.435 125.456C102.908 126.338 103.389 127.286 103.891 128.322L112.891 123.963C112.339 122.824 111.795 121.751 111.248 120.73L102.435 125.456ZM103.891 128.322C105.311 131.254 106.861 134.821 108.799 139.464L118.028 135.613C116.076 130.935 114.438 127.157 112.891 123.963L103.891 128.322Z" fill="#E0FFDD" mask="url(#path-1-outside-1_330_43)"/>
</g>
<defs>
<filter id="filter0_d_330_43" x="0.96875" y="0.83194" width="168.012" height="194.899" filterUnits="userSpaceOnUse" color-interpolation-filters="sRGB">
<feFlood flood-opacity="0" result="BackgroundImageFix"/>
<feColorMatrix in="SourceAlpha" type="matrix" values="0 0 0 0 0 0 0 0 0 0 0 0 0 0 0 0 0 0 127 0" result="hardAlpha"/>
<feOffset dx="-3" dy="4"/>
<feComposite in2="hardAlpha" operator="out"/>
<feColorMatrix type="matrix" values="0 0 0 0 0 0 0 0 0 0 0 0 0 0 0 0 0 0 0.25 0"/>
<feBlend mode="normal" in2="BackgroundImageFix" result="effect1_dropShadow_330_43"/>
<feBlend mode="normal" in="SourceGraphic" in2="effect1_dropShadow_330_43" result="shape"/>
</filter>
</defs>
</svg>
