<svg width="32" height="32" viewBox="0 0 32 32" fill="none" xmlns="http://www.w3.org/2000/svg">
<path fill-rule="evenodd" clip-rule="evenodd" d="M15.9998 1.87073C8.19674 1.87073 1.87109 8.19638 1.87109 15.9994C1.87109 23.8025 8.19674 30.1282 15.9998 30.1282C23.8029 30.1282 30.1284 23.8025 30.1284 15.9994C30.1284 8.19638 23.8029 1.87073 15.9998 1.87073ZM3.89775 15.9994C3.89775 9.31567 9.31603 3.89739 15.9998 3.89739C22.6835 3.89739 28.1018 9.31567 28.1018 15.9994C28.1018 22.6831 22.6835 28.1016 15.9998 28.1016C9.31603 28.1016 3.89775 22.6831 3.89775 15.9994ZM17.5998 9.6C17.5998 10.4837 16.8835 11.2 15.9998 11.2C15.1162 11.2 14.3998 10.4837 14.3998 9.6C14.3998 8.71633 15.1162 8 15.9998 8C16.8835 8 17.5998 8.71633 17.5998 9.6ZM12.8001 12.8H13.8667H16.0001C16.5892 12.8 17.0667 13.2775 17.0667 13.8667V21.3333H18.1334H19.2001V23.4667H18.1334H16.0001H13.8667H12.8001V21.3333H13.8667H14.9334V14.9333H13.8667H12.8001V12.8Z" fill="#5C5C5C"/>
</svg>
