<svg width="32" height="32" viewBox="0 0 32 32" fill="none" xmlns="http://www.w3.org/2000/svg">
<path d="M2.66797 29.3333H29.3346" stroke="#5C5C5C" stroke-width="2" stroke-linecap="round" stroke-linejoin="round"/>
<path d="M8.4813 23.2L5.33464 22.6667L2.66797 17.3334L4.13464 16.6C4.50685 16.4125 4.91784 16.3148 5.33464 16.3148C5.75143 16.3148 6.16242 16.4125 6.53464 16.6L6.7613 16.7334C7.13351 16.9209 7.54451 17.0186 7.9613 17.0186C8.3781 17.0186 8.78909 16.9209 9.1613 16.7334L10.668 16L6.66797 8.00002L7.86797 7.40002C8.31153 7.18182 8.80702 7.0912 9.29911 7.13829C9.79119 7.18538 10.2605 7.36832 10.6546 7.66669L16.0146 11.6667C16.4101 11.9676 16.8819 12.1521 17.3766 12.1992C17.8714 12.2463 18.3694 12.1542 18.8146 11.9334L24.4013 9.18669C25.1152 8.82681 25.9377 8.74599 26.708 8.96002L28.0013 9.33336C28.2685 9.40757 28.5159 9.54039 28.7253 9.72216C28.9348 9.90394 29.1011 10.1301 29.2122 10.3842C29.3233 10.6383 29.3764 10.914 29.3675 11.1912C29.3587 11.4684 29.2883 11.7401 29.1613 11.9867L28.6546 13C28.348 13.6134 27.8546 14.12 27.228 14.44L10.108 22.9334C9.60456 23.1827 9.03527 23.2667 8.4813 23.1734V23.2Z" stroke="#5C5C5C" stroke-width="2" stroke-linecap="round" stroke-linejoin="round"/>
</svg>
