<svg width="32" height="32" viewBox="0 0 32 32" fill="none" xmlns="http://www.w3.org/2000/svg">
<path d="M2.66797 29.3333H29.3346" stroke="#5C5C5C" stroke-width="2" stroke-linecap="round" stroke-linejoin="round"/>
<path d="M5.02797 14.36L2.66797 12L5.33464 5.99998L6.8013 6.73331C7.53464 7.10665 8.0013 7.85331 8.0013 8.66665C8.0013 9.47998 8.46797 10.2266 9.2013 10.6L10.668 11.3333L14.668 3.33331L16.068 4.03998C16.457 4.23377 16.7929 4.51972 17.0462 4.87295C17.2995 5.22618 17.4626 5.63597 17.5213 6.06665L18.4813 13.2666C18.54 13.6973 18.7032 14.1071 18.9565 14.4603C19.2098 14.8136 19.5456 15.0995 19.9346 15.2933L25.8013 18.2266C26.3613 18.52 26.8413 18.96 27.148 19.5066L27.948 20.88C28.6013 22.0533 27.868 23.52 26.5346 23.68L24.9613 23.88C24.3346 23.96 23.6946 23.8533 23.1346 23.56L5.7213 14.8666C5.46434 14.7363 5.23019 14.5652 5.02797 14.36Z" stroke="#5C5C5C" stroke-width="2" stroke-linecap="round" stroke-linejoin="round"/>
</svg>
