<svg width="32" height="32" viewBox="0 0 32 32" fill="none" xmlns="http://www.w3.org/2000/svg">
<path fill-rule="evenodd" clip-rule="evenodd" d="M9.59948 2.13336C10.1886 2.13336 10.6661 2.61093 10.6661 3.20003V4.2667H21.3328V3.20003C21.3328 2.61093 21.8105 2.13336 22.3995 2.13336C22.9885 2.13336 23.4661 2.61093 23.4661 3.20003V4.2667H26.6661C28.4334 4.2667 29.8661 5.69938 29.8661 7.4667V26.6667C29.8661 28.4339 28.4334 29.8667 26.6661 29.8667H5.33281C3.5655 29.8667 2.13281 28.4339 2.13281 26.6667V7.4667C2.13281 5.69938 3.5655 4.2667 5.33281 4.2667H8.53281V3.20003C8.53281 2.61093 9.01038 2.13336 9.59948 2.13336ZM21.3328 6.40003V7.4667C21.3328 8.05579 21.8105 8.53336 22.3995 8.53336C22.9885 8.53336 23.4661 8.05579 23.4661 7.4667V6.40003H26.6661C27.2552 6.40003 27.7328 6.8776 27.7328 7.4667V10.6667H4.26615V7.4667C4.26615 6.8776 4.74371 6.40003 5.33281 6.40003H8.53281V7.4667C8.53281 8.05579 9.01038 8.53336 9.59948 8.53336C10.1886 8.53336 10.6661 8.05579 10.6661 7.4667V6.40003H21.3328ZM4.26615 12.8V26.6667C4.26615 27.2557 4.74371 27.7334 5.33281 27.7334H26.6661C27.2552 27.7334 27.7328 27.2557 27.7328 26.6667V12.8H4.26615ZM14.9328 16C14.9328 15.4109 15.4104 14.9334 15.9995 14.9334C16.5886 14.9334 17.0661 15.4109 17.0661 16C17.0661 16.5891 16.5886 17.0667 15.9995 17.0667C15.4104 17.0667 14.9328 16.5891 14.9328 16ZM20.2661 14.9334C19.677 14.9334 19.1995 15.4109 19.1995 16C19.1995 16.5891 19.677 17.0667 20.2661 17.0667C20.8552 17.0667 21.3328 16.5891 21.3328 16C21.3328 15.4109 20.8552 14.9334 20.2661 14.9334ZM23.4661 16C23.4661 15.4109 23.9438 14.9334 24.5328 14.9334C25.1218 14.9334 25.5995 15.4109 25.5995 16C25.5995 16.5891 25.1218 17.0667 24.5328 17.0667C23.9438 17.0667 23.4661 16.5891 23.4661 16ZM24.5328 19.2C23.9438 19.2 23.4661 19.6776 23.4661 20.2667C23.4661 20.8558 23.9438 21.3334 24.5328 21.3334C25.1218 21.3334 25.5995 20.8558 25.5995 20.2667C25.5995 19.6776 25.1218 19.2 24.5328 19.2ZM19.1995 20.2667C19.1995 19.6776 19.677 19.2 20.2661 19.2C20.8552 19.2 21.3328 19.6776 21.3328 20.2667C21.3328 20.8558 20.8552 21.3334 20.2661 21.3334C19.677 21.3334 19.1995 20.8558 19.1995 20.2667ZM15.9995 19.2C15.4104 19.2 14.9328 19.6776 14.9328 20.2667C14.9328 20.8558 15.4104 21.3334 15.9995 21.3334C16.5886 21.3334 17.0661 20.8558 17.0661 20.2667C17.0661 19.6776 16.5886 19.2 15.9995 19.2ZM10.6661 20.2667C10.6661 19.6776 11.1437 19.2 11.7328 19.2C12.3219 19.2 12.7995 19.6776 12.7995 20.2667C12.7995 20.8558 12.3219 21.3334 11.7328 21.3334C11.1437 21.3334 10.6661 20.8558 10.6661 20.2667ZM7.46615 19.2C6.87705 19.2 6.39948 19.6776 6.39948 20.2667C6.39948 20.8558 6.87705 21.3334 7.46615 21.3334C8.05524 21.3334 8.53281 20.8558 8.53281 20.2667C8.53281 19.6776 8.05524 19.2 7.46615 19.2ZM6.39948 24.5334C6.39948 23.9443 6.87705 23.4667 7.46615 23.4667C8.05524 23.4667 8.53281 23.9443 8.53281 24.5334C8.53281 25.1224 8.05524 25.6 7.46615 25.6C6.87705 25.6 6.39948 25.1224 6.39948 24.5334ZM11.7328 23.4667C11.1437 23.4667 10.6661 23.9443 10.6661 24.5334C10.6661 25.1224 11.1437 25.6 11.7328 25.6C12.3219 25.6 12.7995 25.1224 12.7995 24.5334C12.7995 23.9443 12.3219 23.4667 11.7328 23.4667ZM14.9328 24.5334C14.9328 23.9443 15.4104 23.4667 15.9995 23.4667C16.5886 23.4667 17.0661 23.9443 17.0661 24.5334C17.0661 25.1224 16.5886 25.6 15.9995 25.6C15.4104 25.6 14.9328 25.1224 14.9328 24.5334ZM20.2661 23.4667C19.677 23.4667 19.1995 23.9443 19.1995 24.5334C19.1995 25.1224 19.677 25.6 20.2661 25.6C20.8552 25.6 21.3328 25.1224 21.3328 24.5334C21.3328 23.9443 20.8552 23.4667 20.2661 23.4667Z" fill="#5C5C5C"/>
</svg>
